<svg version="1.1" xmlns="http://www.w3.org/2000/svg" xmlns:xlink="http://www.w3.org/1999/xlink" width="800" height="800"><defs/><g transform="scale(2,2)"><g id="background-fd059ad2"><rect fill="white" stroke="none" x="0" y="0" width="400" height="400" class="dcg-svg-background"/></g><g id="background-images-fd059ad2"/><g id="graphpaper-fd059ad2"><g id="axis-fd059ad2"><g id="yaxis-fd059ad2"><title>Y axis</title><path fill="none" stroke="rgb(0,0,0)" class="dcg-svg-axis-line" paint-order="fill stroke markers" d=" M 72 0 L 72 400" stroke-opacity="0.9" stroke-miterlimit="10" stroke-width="1.5" stroke-dasharray=""/></g><g id="xaxis-fd059ad2"><title>X axis</title><path fill="none" stroke="rgb(0,0,0)" class="dcg-svg-axis-line" paint-order="fill stroke markers" d=" M 0 116 L 400 116" stroke-opacity="0.9" stroke-miterlimit="10" stroke-width="1.5" stroke-dasharray=""/></g><g><g class="dcg-svg-axis-value"><text fill="none" stroke="#ffffff" font-family="Arial" font-size="14px" font-style="normal" font-weight="normal" text-decoration="normal" x="62.8500249718779" y="131.9730900649584" text-anchor="middle" stroke-miterlimit="2" stroke-width="3" stroke-dasharray="">0</text><text fill="#000000" stroke="none" font-family="Arial" font-size="14px" font-style="normal" font-weight="normal" text-decoration="normal" x="62.8500249718779" y="131.9730900649584" text-anchor="middle">0</text></g><g><path fill="none" stroke="rgb(0,0,0)" class="dcg-svg-tickmark" paint-order="fill stroke markers" d=" M 234 113 L 234 119 M 397 113 L 397 119 M 69 279 L 75 279" stroke-opacity="0.9" stroke-miterlimit="2" stroke-width="1.5" stroke-dasharray=""/></g><g class="dcg-svg-axis-value"><text fill="none" stroke="#ffffff" font-family="Arial" font-size="14px" font-style="normal" font-weight="normal" text-decoration="normal" x="234.16010087425755" y="131.9730900649584" text-anchor="middle" stroke-miterlimit="2" stroke-width="3" stroke-dasharray="">5</text><text fill="#000000" stroke="none" font-family="Arial" font-size="14px" font-style="normal" font-weight="normal" text-decoration="normal" x="234.16010087425755" y="131.9730900649584" text-anchor="middle">5</text></g><g class="dcg-svg-axis-value dcg-svg-offcenter-axis-value"><text fill="none" stroke="#ffffff" font-family="Arial" font-size="14px" font-style="normal" font-weight="normal" text-decoration="normal" x="389.2138671875" y="131.9730900649584" text-anchor="middle" stroke-miterlimit="2" stroke-width="3" stroke-dasharray="">10</text><text fill="#000000" stroke="none" font-family="Arial" font-size="14px" font-style="normal" font-weight="normal" text-decoration="normal" x="389.2138671875" y="131.9730900649584" text-anchor="middle">10</text></g><g class="dcg-svg-axis-value"><text fill="none" stroke="#ffffff" font-family="Arial" font-size="14px" font-style="normal" font-weight="normal" text-decoration="normal" x="60.5189702843779" y="282.39009956108805" text-anchor="middle" stroke-miterlimit="2" stroke-width="3" stroke-dasharray="">-5</text><text fill="#000000" stroke="none" font-family="Arial" font-size="14px" font-style="normal" font-weight="normal" text-decoration="normal" x="60.5189702843779" y="282.39009956108805" text-anchor="middle">-5</text></g></g></g></g><g id="expressions-fd059ad2"><g id="sketch-fd059ad2"><title>Expression 1</title><path fill="#c74440" stroke="none" paint-order="stroke fill markers" d="" fill-opacity="0.4"/><g><path fill="none" stroke="#c74440" class="dcg-svg-curve" paint-order="fill stroke markers" d=" M -0.5 240.78966777032866 L -0.5 240.78966777032866 L 1.3554687499999925 234.59231675265428 L 2.6249999999999956 231.02473932193863 L 3.6015624999999973 228.82393053570866 L 4.4804687499999885 227.327523019526 L 5.261718749999998 226.42499212758557 L 6.042968749999993 225.951890234315 L 6.628906249999997 225.88891215199894 L 7.214843750000001 226.07981351427935 L 7.8984375 226.62300567780076 L 8.679687500000004 227.65864909879645 L 9.460937500000005 229.11883703538115 L 10.339843749999996 231.23327983336708 L 11.414062500000009 234.4172677704389 L 12.683593749999996 238.86330483468808 L 14.63671875 246.57205695927948 L 17.273437499999996 256.9222714378931 L 18.640624999999993 261.4539131631026 L 19.714843749999996 264.3139622251589 L 20.593749999999996 266.08982884407226 L 21.375 267.1900182830476 L 22.058593750000007 267.75762409204515 L 22.644531250000004 267.93925101612456 L 23.230468750000007 267.8341106628736 L 23.81640625000001 267.4409623157359 L 24.499999999999996 266.62177572674216 L 25.183593750000007 265.4243773725344 L 25.964843750000004 263.6149756058216 L 26.941406250000007 260.74578959670305 L 28.015625000000004 256.91568206740516 L 29.3828125 251.26086457995382 L 32.1171875 238.8184419768177 L 33.87500000000001 231.32395995967593 L 35.14453125 226.76902921163554 L 36.12109375 223.96832415270796 L 37.00000000000001 222.07272013302918 L 37.68359375000001 221.05079036992493 L 38.3671875 220.44955743855033 L 38.9652845747274 220.28057092246638 L 39.44140624999999 220.38829559534156 L 40.02734375 220.81668914419214 L 40.7109375 221.7253302525485 L 41.39453125 223.06323213936992 L 42.17578125 225.09320204412856 L 43.0546875 227.9667191181433 L 44.12890625000001 232.2191523192368 L 45.49609375 238.54859889799096 L 47.83984375 250.60384842285828 L 49.890625 260.75414312862483 L 51.16015625000001 266.09493618122417 L 52.13671875000001 269.44429092404766 L 53.01562500000001 271.7733286757157 L 53.69921875 273.08383790053387 L 54.38281249999999 273.9250717239134 L 54.96875 274.257427665888 L 55.45703125 274.2542485795534 L 55.9453125 273.9942530358487 L 56.53125 273.34397520832357 L 57.1171875 272.32961911350105 L 57.80078125 270.6993793377379 L 58.58203125000001 268.2766169224609 L 59.55859375000001 264.4814812920687 L 60.6328125 259.4630861099489 L 62.09765625000001 251.55961427534433 L 66.88281250000001 224.7123468809663 L 67.95703125 220.11186708508694 L 68.8359375 217.10599854018352 L 69.61718749999999 215.09264576315445 L 70.30078125 213.8842208613214 L 70.88671875000001 213.28120005054706 L 71.44868647395333 213.08957942555642 L 71.9609375 213.2497013155288 L 72.54687500000001 213.8255580293987 L 73.1328125 214.81681779030328 L 73.81640625 216.48596189819781 L 74.59765625 219.0399935123344 L 75.4765625 222.67618792780732 L 76.55078125 228.08138043875783 L 77.8203125 235.54711093614227 L 79.87109375 248.9985471108236 L 82.21484375 264.11679050530404 L 83.484375 271.1283593756651 L 84.55859375 275.9750223925577 L 85.4375 279.02771734639157 L 86.12109374999999 280.7630797985098 L 86.70703125 281.77427772658444 L 87.29296875 282.32761627676706 L 87.78125 282.43065375329877 L 88.26953125000001 282.2044044450387 L 88.75781250000001 281.6484116552974 L 89.34375 280.54967958672705 L 90.02734375 278.68599682949264 L 90.80859374999999 275.82177907619575 L 91.6875 271.73192644141125 L 92.76171875 265.6385291742927 L 94.03125000000001 257.2058937460456 L 95.984375 242.7224937011731 L 98.5234375 224.16427785934985 L 99.79296875 216.29143013704513 L 100.76953125 211.31667190013079 L 101.6484375 207.82251035777148 L 102.33203125 205.8263904975917 L 102.91796875 204.6537914689879 L 103.40625000000001 204.07165566517682 L 103.93208837317927 203.85616357233866 L 104.28515625 203.95379888567547 L 104.77343750000001 204.41096909936812 L 105.26171875 205.24068601099128 L 105.84765625000001 206.7213611981418 L 106.53125 209.09873189339308 L 107.31250000000001 212.62959123154576 L 108.19140625000001 217.55365562973194 L 109.26562499999999 224.75505114580773 L 110.63281250000001 235.36001704868656 L 113.56250000000001 260.25205935740036 L 115.22265625000001 273.28015733516816 L 116.39453124999999 281.02479744421294 L 117.37109375 286.20280608878005 L 118.15234375 289.36040644519926 L 118.8359375 291.33252847105314 L 119.421875 292.40092573964074 L 119.91015625000001 292.8376852332697 L 120.30078125 292.8848843842 L 120.69140625000001 292.6613006924623 L 121.1796875 292.0006451674064 L 121.66796875 290.9191813656147 L 122.25390625 289.07539886288697 L 122.93750000000001 286.1955334049718 L 123.71875000000001 281.99623346709626 L 124.69531250000001 275.5121526139627 L 125.8671875 266.20599567954514 L 127.4296875 251.96551801579164 L 131.43359375 214.4834814793752 L 132.60546875000003 205.66348269515524 L 133.58203125 199.75029157656368 L 134.36328125 196.13090049499922 L 135.046875 193.85728482877266 L 135.63281250000003 192.61178368118655 L 136.12109375 192.0871066238291 L 136.51171875000003 192.00952662521064 L 136.90234375 192.23867802953785 L 137.39062500000003 192.95710791870803 L 137.87890625 194.15269757380403 L 138.46484375 196.2069381058316 L 139.14843749999997 199.4310642769511 L 139.9296875 204.1477992176676 L 140.90625 211.44919408668267 L 142.078125 221.95042408245317 L 143.640625 238.05128152646523 L 147.74218750000003 281.47630112418994 L 148.91406250000003 291.3613515557344 L 149.890625 297.94884505233165 L 150.671875 301.9480290272062 L 151.35546875000003 304.42836306724865 L 151.84375 305.5854228127306 L 152.33203125 306.213649467158 L 152.72265625 306.3288478252024 L 153.11328125000003 306.09660607291204 L 153.50390625 305.5161601919781 L 153.9921875 304.30300086347467 L 154.578125 302.14165511102203 L 155.26171875000003 298.67476792658715 L 156.04296875 293.5290208044652 L 156.921875 286.356096156622 L 157.99609375000003 275.86955402828994 L 159.36328125 260.4318928231396 L 162.29296875 224.21307417046617 L 163.95312500000003 205.26610537442974 L 165.125 194.00765721822307 L 166.10156249999997 186.48397325144833 L 166.8828125 181.89897462869237 L 167.56640625 179.03828110628822 L 168.0546875 177.689892754173 L 168.54296875 176.9398866210428 L 168.89889217163113 176.77689381553952 L 169.22656250000003 176.9155307048463 L 169.6171875 177.4435893636294 L 170.00781249999997 178.36553096862454 L 170.49609375 180.0672080433913 L 171.08203125 182.900015611603 L 171.765625 187.2577884805945 L 172.54687500000003 193.54561899972597 L 173.5234375 203.1755902002829 L 174.6953125 216.9019713958058 L 176.2578125 237.77012602052568 L 180.06640625000003 289.7626185223861 L 181.23828125000003 302.785529198302 L 182.21484375000003 311.5867913874316 L 182.99609375 317.0322152354795 L 183.67968750000003 320.50926945200894 L 184.265625 322.4730389012926 L 184.75390625 323.36606589986593 L 185.14059312124408 323.5840182275912 L 185.4375 323.4550480287424 L 185.828125 322.8918940462721 L 186.21875 321.88226148576 L 186.70703125000003 319.9973194169636 L 187.29296874999997 316.8380214897014 L 187.97656250000003 311.95655565200764 L 188.7578125 304.8914414511528 L 189.734375 294.0450560157959 L 190.90625 278.55335694008767 L 192.46874999999997 254.9558936337287 L 196.37499999999997 194.6425926196694 L 197.54687499999997 180.0411632279883 L 198.52343750000003 170.22998967738744 L 199.3046875 164.20650784757103 L 199.98828125 160.4051120252502 L 200.4765625 158.57829504833578 L 200.86718750000006 157.6675574362735 L 201.25781250000003 157.25539154277973 L 201.55078125000003 157.27679195717917 L 201.94140625 157.7483299889484 L 202.33203125000006 158.72631293763862 L 202.82031250000003 160.65681533675146 L 203.40625000000003 163.99592263279453 L 204.08984375 169.2581471968479 L 204.87109375000003 176.9777917716628 L 205.74999999999997 187.6484729980815 L 206.82421875 203.14279190521842 L 208.19140624999997 225.81017896258598 L 213.171875 311.56529769397105 L 214.24609375000003 325.4287722778219 L 215.12500000000003 334.38904737837026 L 215.80859375000003 339.67032560408416 L 216.39453125000003 342.9288627407715 L 216.88281250000006 344.70880284933503 L 217.27343750000003 345.503765952997 L 217.56640624999997 345.7276109293854 L 217.85937500000003 345.62977500674873 L 218.15234375000003 345.2091195874744 L 218.54296875000003 344.1460531476206 L 219.03124999999997 342.01440552669374 L 219.6171875 338.2963523281451 L 220.30078125000003 332.4070098242189 L 221.08203125 323.73790444063144 L 221.9609375 311.72520865152865 L 223.03515625000003 294.2471841675431 L 224.40234375 268.63025277834845 L 229.48046875 169.77656155047333 L 230.55468749999997 154.27560998959328 L 231.43359375000006 144.32374777749794 L 232.11718750000003 138.51148359773038 L 232.70312500000003 134.97510631689408 L 233.19140625 133.09265386820454 L 233.58203125000003 132.30150566003937 L 233.86569597008298 132.13072577247817 L 234.16796874999997 132.32522369404904 L 234.4609375 132.88547033475317 L 234.85156250000003 134.2012626587927 L 235.33984375 136.7543918294092 L 235.92578125 141.1291093309511 L 236.60937500000003 147.98354921758303 L 237.390625 157.99970533446995 L 238.26953125 171.8053914788101 L 239.34375000000003 191.80522792009776 L 240.80859375 223.20097621992903 L 245.49609375000003 327.3586632657247 L 246.5703125 345.7086954948835 L 247.44921875 357.74839321938424 L 248.23046875000003 365.8608864398934 L 248.81640625000003 370.20677335195023 L 249.30468749999997 372.63195170254005 L 249.69531250000003 373.766737485318 L 249.98828125000003 374.14059533457754 L 250.28124999999997 374.1018817405318 L 250.57421875000003 373.6488567700218 L 250.96484375000003 372.3998181936795 L 251.35546875 370.4163610333861 L 251.84375000000003 366.9152391550578 L 252.42968750000003 361.24669952382686 L 253.11328125 352.68677714653603 L 253.89453125000003 340.49729347223115 L 254.87109375000003 322.02280633617687 L 256.04296875 295.92454179000606 L 257.703125 254.0250890218037 L 261.12109375 166.59266563160284 L 262.39062500000006 139.81944542233748 L 263.3671875 123.15467014909234 L 264.14843750000006 112.77931886754703 L 264.83203125 106.09246383816162 L 265.41796875000006 102.25210044413711 L 265.80859375 100.69752042217146 L 266.1015625 100.06996247133907 L 266.34909786930893 99.90293777588283 L 266.58984375000006 100.06132362302912 L 266.88281250000006 100.68198249406424 L 267.2734375 102.24019105568004 L 267.76171875 105.35591146122971 L 268.34765625 110.78231893364648 L 269.03125000000006 119.36994326975741 L 269.8125 132.00334192113337 L 270.69140625 149.5017427723852 L 271.76562500000006 174.95231460369575 L 273.1328125 212.24222718014414 L 278.2109375 356.0436654532105 L 279.28515625 378.57291285119487 L 280.16406250000006 393.02915477680233 L 280.84765625000006 401.465776940863 L 281.30869353146574 405.5 L 283.87042797090845 405.5 L 283.97265625 404.7801357652077 L 284.55859375 398.7395882590346 L 285.2421875 389.13001769550647 L 286.0234375 374.94412608730016 L 286.90234375000006 355.2462395673692 L 287.9765625 326.538564137191 L 289.34375 284.3978243877962 L 294.51953125 118.70111942116552 L 295.59375000000006 93.52078090464994 L 296.47265625 77.47520434418993 L 297.15625000000006 68.2012326808698 L 297.7421875 62.650011652990486 L 298.23046875 59.786725432875244 L 298.62109375 58.67810394172551 L 298.83249976853483 58.52163886463052 L 299.01171875000006 58.63431661155926 L 299.30468750000006 59.30451657228207 L 299.59765625000006 60.57812921664271 L 299.98828125 63.212260453201736 L 300.4765625 67.99593973232828 L 301.06250000000006 75.88113497634549 L 301.74609375000006 87.93270107061386 L 302.52734375 105.242757681326 L 303.50390625000006 131.65853879225824 L 304.67578125000006 169.19605928998135 L 306.23828125000006 226.09780409622618 L 309.94921875 363.97575289290177 L 311.12109375000006 399.6546650816662 L 311.3568156221213 405.5 L 318.7291608230763 405.5 L 319.6171875 378.95993502893896 L 320.78906250000006 337.1319689204306 L 322.3515625 273.21331515851017 L 326.35546875 105.3615760197136 L 327.52734375 65.97104596259658 L 328.50390625 39.61287163792542 L 329.28515625 23.521147363851014 L 329.96875 13.453124569155875 L 330.45703125000006 8.684855443455263 L 330.84765624999994 6.370772451937626 L 331.140625 5.525134362565609 L 331.3159016677608 5.38699928702971 L 331.53125000000006 5.595923126444461 L 331.82421875 6.552037256008873 L 332.1171875 8.282865503135326 L 332.50781250000006 11.79179815833595 L 332.99609375 18.090375398461276 L 333.58203125 28.39768703129937 L 334.265625 44.07531138353062 L 335.046875 66.51652843961 L 336.0234375 100.66971852659896 L 337.1953125 149.0893711014357 L 338.85546875000006 227.10167226933612 L 342.37109375 394.9785189027968 L 342.6377417838723 405.5 L 352.3498312562734 405.5 L 353.30859375 361.34722892584244 L 354.87109375 279.066944129105 L 358.77734375 68.4399200012453 L 359.94921875000006 17.356177081193664 L 360.5986582588826 -5.5 L 366.9519306453515 -5.5 L 367.37109375000006 9.303597410682414 L 368.34765625 51.815012485672526 L 369.51953125000006 112.718080445557 L 371.08203125 205.7543077763131 L 374.3574063350069 405.5 L 385.59964499594105 405.5 L 385.82812500000006 391.92541336510106 L 387.39062500000006 286.01452485095336 L 391.19921875 21.88659404229037 L 391.6837850634713 -5.5" stroke-linecap="round" stroke-linejoin="round" stroke-miterlimit="10" stroke-width="2.5" stroke-opacity="0.9" stroke-dasharray=""/></g></g></g><g id="labels-fd059ad2"/></g></svg>