<?xml version="1.0" encoding="UTF-8" standalone="no"?>
<svg
   xmlns:dc="http://purl.org/dc/elements/1.1/"
   xmlns:cc="http://creativecommons.org/ns#"
   xmlns:rdf="http://www.w3.org/1999/02/22-rdf-syntax-ns#"
   xmlns:svg="http://www.w3.org/2000/svg"
   xmlns="http://www.w3.org/2000/svg"
   xmlns:sodipodi="http://sodipodi.sourceforge.net/DTD/sodipodi-0.dtd"
   xmlns:inkscape="http://www.inkscape.org/namespaces/inkscape"
   version="1.1"
   id="svg2"
   xml:space="preserve"
   width="584"
   height="160.54668"
   viewBox="0 0 584 160.54668"
   sodipodi:docname="creative-commons-bw.eps"><metadata
     id="metadata8"><rdf:RDF><cc:Work
         rdf:about=""><dc:format>image/svg+xml</dc:format><dc:type
           rdf:resource="http://purl.org/dc/dcmitype/StillImage" /></cc:Work></rdf:RDF></metadata><defs
     id="defs6" /><sodipodi:namedview
     pagecolor="#ffffff"
     bordercolor="#666666"
     borderopacity="1"
     objecttolerance="10"
     gridtolerance="10"
     guidetolerance="10"
     inkscape:pageopacity="0"
     inkscape:pageshadow="2"
     inkscape:window-width="640"
     inkscape:window-height="480"
     id="namedview4" /><g
     id="g10"
     inkscape:groupmode="layer"
     inkscape:label="ink_ext_XXXXXX"
     transform="matrix(1.3333333,0,0,-1.3333333,0,160.54667)"><g
       id="g12"
       transform="scale(0.1)"><path
         d="m 3983.07,968.059 c 5.23,33.691 18.8,59.781 40.72,78.261 21.9,18.47 48.57,27.72 79.97,27.72 43.18,0 77.52,-13.91 103.04,-41.71 25.51,-27.8 38.27,-63.459 38.27,-106.959 0,-42.195 -13.24,-77.273 -39.75,-105.242 -26.48,-27.965 -60.84,-41.949 -103.03,-41.949 -31.08,0 -57.9,9.324 -80.46,27.968 -22.57,18.645 -36.15,45.137 -40.73,79.485 h 69.18 c 1.64,-33.363 21.75,-50.043 60.35,-50.043 19.3,0 34.84,8.34 46.61,25.019 11.77,16.684 17.67,38.918 17.67,66.727 0,29.105 -5.4,51.269 -16.19,66.48 -10.8,15.214 -26.34,22.814 -46.62,22.814 -36.63,0 -57.24,-16.19 -61.82,-48.571 h 20.12 l -54.46,-54.461 -54.46,54.461 z m 122.66,186.441 c -62.48,0 -115.31,-22.07 -158.48,-66.23 -44.82,-45.47 -67.21,-98.461 -67.21,-158.969 0,-61.172 22.23,-113.828 66.72,-157.988 44.48,-44.489 97.47,-66.727 158.97,-66.727 61.15,0 114.48,22.398 159.94,67.219 43.19,41.863 64.77,94.363 64.77,157.496 0,62.801 -21.91,115.789 -65.74,158.969 -43.52,44.16 -96.51,66.23 -158.97,66.23 z m -0.98,49.55 c 76.86,0 141.95,-26.66 195.27,-79.97 53.31,-52.99 79.97,-117.92 79.97,-194.779 0,-76.871 -26.17,-141.305 -78.5,-193.313 -55.28,-54.3 -120.86,-81.445 -196.74,-81.445 -74.26,0 -138.7,26.984 -193.31,80.953 -53.98,53.969 -80.96,118.563 -80.96,193.805 0,74.899 26.98,139.829 80.96,194.779 53.31,53.31 117.75,79.97 193.31,79.97"
         style="fill:#231f20;fill-opacity:1;fill-rule:nonzero;stroke:none"
         id="path14" /><path
         d="m 1551.05,977.871 h -120.2 V 805.656 h 120.2 z m -195.27,-97.633 h 45.14 V 992.59 c 0,3.926 1.31,7.277 3.93,10.06 2.61,2.77 5.72,4.49 9.32,5.15 h 1.96 59.86 v 44.65 h -120.21 z m 210,127.562 c 4.24,0 7.85,-1.47 10.79,-4.41 2.94,-2.95 4.42,-6.55 4.42,-10.8 V 790.445 c 0,-4.25 -1.48,-7.843 -4.42,-10.789 -2.94,-2.945 -6.55,-4.418 -10.79,-4.418 h -149.65 c -4.25,0 -7.85,1.473 -10.79,4.418 -2.95,2.946 -4.42,6.539 -4.42,10.789 v 59.86 h -59.86 c -4.25,0 -7.85,1.476 -10.79,4.414 -2.95,2.945 -4.42,6.543 -4.42,10.797 v 202.144 c 0,3.93 1.31,7.27 3.93,10.06 2.61,2.77 5.88,4.49 9.81,5.15 h 1.47 149.65 c 4.25,0 7.85,-1.48 10.79,-4.42 2.95,-2.94 4.42,-6.54 4.42,-10.79 v -59.86 z m -111.87,146.7 c -62.48,0 -115.3,-22.07 -158.48,-66.23 -44.81,-45.47 -67.21,-98.461 -67.21,-158.969 0,-61.172 22.23,-113.828 66.72,-157.988 44.48,-44.489 97.47,-66.727 158.97,-66.727 61.16,0 114.48,22.398 159.95,67.219 43.18,41.863 64.76,94.363 64.76,157.496 0,62.801 -21.92,115.789 -65.74,158.969 -43.51,44.16 -96.5,66.23 -158.97,66.23 z m -0.98,49.55 c 76.86,0 141.95,-26.66 195.27,-79.97 53.31,-52.99 79.98,-117.92 79.98,-194.779 0,-76.871 -26.17,-141.305 -78.51,-193.313 -55.28,-54.3 -120.86,-81.445 -196.74,-81.445 -74.26,0 -138.69,26.984 -193.31,80.953 -53.97,53.969 -80.96,118.563 -80.96,193.805 0,74.899 26.99,139.829 80.96,194.779 53.31,53.31 117.75,79.97 193.31,79.97"
         style="fill:#231f20;fill-opacity:1;fill-rule:nonzero;stroke:none"
         id="path16" /><path
         d="m 2741.05,1068.15 c 0,25.84 12.76,38.76 38.27,38.76 25.51,0 38.27,-12.92 38.27,-38.76 0,-25.51 -12.76,-38.27 -38.27,-38.27 -25.51,0 -38.27,12.76 -38.27,38.27 z m 112.36,-70.658 V 885.141 h -31.4 v -133.45 h -85.37 v 133.45 h -31.41 v 112.351 c 0,4.918 1.72,9.078 5.16,12.518 3.43,3.43 7.6,5.15 12.51,5.15 h 112.85 c 4.57,0 8.66,-1.72 12.26,-5.15 3.6,-3.44 5.4,-7.6 5.4,-12.518 z m -73.6,157.008 c -62.48,0 -115.3,-21.92 -158.47,-65.75 -44.82,-45.79 -67.22,-98.941 -67.22,-159.449 0,-60.844 22.24,-113.508 66.72,-157.988 44.49,-44.485 97.48,-66.731 158.97,-66.731 61.17,0 114.48,22.402 159.95,67.219 43.18,41.543 64.77,94.043 64.77,157.5 0,62.469 -21.92,115.629 -65.75,159.449 -43.83,43.83 -96.82,65.75 -158.97,65.75 z m -0.98,49.55 c 77.2,0 142.29,-26.49 195.28,-79.48 53.31,-53.32 79.97,-118.41 79.97,-195.269 0,-77.199 -26.17,-141.477 -78.5,-192.824 -55.61,-54.629 -121.19,-81.934 -196.75,-81.934 -74.25,0 -138.69,26.984 -193.31,80.957 -53.97,53.965 -80.95,118.566 -80.95,193.801 0,75.219 26.98,140.319 80.95,195.269 52.99,52.99 117.42,79.48 193.31,79.48"
         style="fill:#231f20;fill-opacity:1;fill-rule:nonzero;stroke:none"
         id="path18" /><path
         d="m 3442.77,1155 c -62.48,0 -115.3,-22.08 -158.47,-66.24 -10.8,-10.8 -20.94,-23.06 -30.42,-36.8 l 104.99,-47.1 c 4.58,14.39 13.24,25.92 26,34.59 12.76,8.66 27.64,13.49 44.65,14.47 v 42.2 h 31.89 v -42.2 c 25.19,-1.31 48.08,-9.81 68.69,-25.51 l -35.82,-36.797 c -15.37,10.797 -31.08,16.187 -47.09,16.187 -8.52,0 -16.12,-1.64 -22.81,-4.9 -6.72,-3.275 -10.06,-8.83 -10.06,-16.681 0,-2.297 0.8,-4.586 2.44,-6.871 l 34.84,-15.7 24.04,-10.793 44.16,-19.625 140.81,-62.804 c 4.58,19.297 6.87,38.922 6.87,58.879 0,63.125 -21.91,116.275 -65.74,159.455 -43.52,44.16 -96.51,66.24 -158.97,66.24 z m -213.42,-151.61 c -8.19,-22.574 -12.27,-47.269 -12.27,-74.085 0,-60.84 22.24,-113.508 66.72,-157.989 44.81,-44.156 97.8,-66.234 158.97,-66.234 61.82,0 115.13,22.402 159.94,67.215 16.03,15.371 28.62,31.402 37.78,48.086 L 3536.97,866.5 c -3.6,-17.336 -12.35,-31.484 -26.25,-42.441 -13.9,-10.961 -30.35,-17.254 -49.31,-18.887 v -42.195 h -31.89 v 42.195 c -30.42,0.324 -58.22,11.285 -83.41,32.871 l 37.78,38.273 c 17.99,-16.683 38.43,-25.027 61.32,-25.027 9.5,0 17.58,2.125 24.3,6.379 6.7,4.246 10.06,11.285 10.06,21.098 0,6.871 -2.46,12.429 -7.36,16.679 l -26.5,11.289 -32.38,14.719 -43.66,19.137 z m 212.44,200.67 c 77.19,0 142.28,-26.49 195.27,-79.48 53.31,-52.99 79.97,-118.08 79.97,-195.275 0,-77.203 -26.17,-141.477 -78.49,-192.825 -55.62,-54.628 -121.2,-81.937 -196.75,-81.937 -74.58,0 -139.02,27.148 -193.31,81.449 -53.97,53.973 -80.96,118.406 -80.96,193.313 0,75.235 26.99,140.325 80.96,195.275 52.98,52.99 117.42,79.48 193.31,79.48"
         style="fill:#231f20;fill-opacity:1;fill-rule:nonzero;stroke:none"
         id="path20" /><path
         d="m 2284.17,855.699 v 47.594 l -49.07,-20.605 v -48.083 z m -57.9,42.199 44.16,18.153 -40.72,17.176 -43.18,-18.157 z m -8.34,-63.785 v 48.575 h -0.49 v 1.964 l -126.09,51.516 v -50.047 l 126.09,-52.008 v 0.492 z m 78.01,90.278 5.4,-2.45 v -77.527 l -4.91,-2.449 -66.72,-28.457 -2.95,-0.981 -3.43,0.981 -143.76,59.363 -4.91,1.965 -71.14,-29.438 -70.16,30.418 v 70.657 l 65.75,27.476 -0.5,0.489 v 77.522 l 74.58,32.87 168.29,-69.67 V 946.961 Z M 2116.86,1154.5 c -62.48,0 -115.3,-22.07 -158.48,-66.23 -44.82,-45.47 -67.21,-98.461 -67.21,-158.969 0,-61.172 22.23,-113.828 66.72,-157.988 44.48,-44.489 97.47,-66.727 158.97,-66.727 61.16,0 114.48,22.398 159.95,67.219 43.18,41.863 64.76,94.363 64.76,157.496 0,62.801 -21.92,115.789 -65.74,158.969 -43.51,44.16 -96.5,66.23 -158.97,66.23 z m -0.98,49.55 c 76.86,0 141.95,-26.66 195.27,-79.97 53.31,-52.99 79.98,-117.92 79.98,-194.779 0,-76.871 -26.17,-141.305 -78.51,-193.313 -55.28,-54.3 -120.86,-81.445 -196.74,-81.445 -74.26,0 -138.69,26.984 -193.31,80.953 -53.97,53.969 -80.96,118.563 -80.96,193.805 0,74.899 26.99,139.829 80.96,194.779 53.31,53.31 117.75,79.97 193.31,79.97"
         style="fill:#231f20;fill-opacity:1;fill-rule:nonzero;stroke:none"
         id="path22" /><path
         d="m 741.215,668.328 -62.543,-32.969 c -6.762,14.082 -15.074,23.954 -24.934,29.59 -9.871,5.614 -19.308,8.446 -28.308,8.446 -42.254,0 -63.383,-27.891 -63.383,-83.672 0,-25.352 5.348,-45.645 16.043,-60.848 10.699,-15.207 26.48,-22.832 47.34,-22.832 27.605,0 47.035,13.523 58.304,40.574 l 59.164,-29.57 c -12.972,-23.113 -30.414,-41.277 -52.402,-54.52 -21.965,-13.242 -45.922,-19.863 -71.828,-19.863 -42.828,0 -77.063,12.969 -102.684,38.875 -25.652,25.918 -38.457,61.984 -38.457,108.184 0,45.078 13.086,80.84 39.297,107.336 26.196,26.484 59.297,39.714 99.305,39.714 58.59,0 100.293,-22.8 125.086,-68.445 z m -272.988,0 -63.387,-32.969 c -6.766,14.082 -15.09,23.954 -24.93,29.59 -9.875,5.614 -19.027,8.446 -27.469,8.446 -42.261,0 -63.386,-27.891 -63.386,-83.672 0,-25.352 5.347,-45.645 16.047,-60.848 10.699,-15.207 26.48,-22.832 47.339,-22.832 27.602,0 47.032,13.523 58.321,40.574 l 58.304,-29.57 c -12.394,-23.113 -29.574,-41.277 -51.554,-54.52 -21.977,-13.242 -46.199,-19.863 -72.676,-19.863 -42.258,0 -76.356,12.969 -102.262,38.875 -25.926,25.918 -38.89,61.984 -38.89,108.184 0,45.078 13.101,80.84 39.308,107.336 26.192,26.484 59.281,39.714 99.305,39.714 58.594,0 100.578,-22.8 125.93,-68.445 z m 5.918,309.324 C 365.969,977.652 274.957,939.91 201.156,864.41 163.965,826.648 135.367,784.254 115.367,737.203 95.3594,690.145 85.3711,640.992 85.3711,589.723 c 0,-50.703 9.9883,-99.59 29.9959,-146.621 20,-47.071 48.598,-89.043 85.789,-125.938 37.18,-36.922 79.153,-65.078 125.934,-84.531 46.75,-19.422 95.765,-29.153 147.055,-29.153 50.703,0 99.859,9.856 147.48,29.594 47.609,19.715 90.559,48.164 128.895,85.352 73.796,72.117 110.707,162.558 110.707,271.297 0,52.394 -9.59,101.972 -28.731,148.75 -19.16,46.769 -47.051,88.457 -83.68,125.097 -76.066,76.047 -167.628,114.082 -274.671,114.082 z m -1.696,85.368 c 132.41,0 245.102,-46.21 338.074,-138.61 44.497,-44.512 78.309,-95.359 101.418,-152.558 23.102,-57.196 34.657,-117.891 34.657,-182.129 0,-64.805 -11.422,-125.496 -34.235,-182.137 -22.828,-56.621 -56.504,-106.633 -100.996,-150 C 765.156,211.941 712.754,176.988 654.16,152.781 595.551,128.539 534.996,116.43 472.449,116.43 c -62.547,0 -122.414,11.961 -179.594,35.929 C 235.66,176.301 184.387,210.953 139.031,256.305 93.6602,301.656 59.1602,352.801 35.4922,409.703 11.8398,466.617 0,526.617 0,589.723 c 0,62.539 11.957,122.675 35.9336,180.449 23.9336,57.746 58.7266,109.445 104.3594,155.078 90.152,91.84 200.859,137.77 332.156,137.77"
         style="fill:#231f20;fill-opacity:1;fill-rule:nonzero;stroke:none"
         id="path24" /><g
         id="g26"
         transform="scale(10)"><text
           transform="matrix(1,0,0,-0.9561692,121.723,46.2004)"
           style="font-variant:normal;font-weight:normal;font-size:12.5501px;font-family:MyriadPro;-inkscape-font-specification:MyriadPro-Regular;writing-mode:lr-tb;fill:#231f20;fill-opacity:1;fill-rule:nonzero;stroke:none"
           id="text36"><tspan
             x="0 7.2412047 11.219715 17.507305 23.505846 27.659922 30.596642 36.507767 42.795357 45.455971 52.59708 59.487072 69.953842 80.420609 87.3106 94.275894 99.107422 101.70529 103.7888 109.62425 116.51424 123.42934 126.08996 136.55672 142.50545 148.41653 151.07715 158.1554 161.09212 166.06195 170.21602 174.36983 177.30655 184.44754 191.36264 195.44125 201.57796 204.17583 206.83644 212.3838 219.2738 226.32651 232.23759 237.55884 243.60797 250.57327 257.65152 260.31213 265.93457 269.91309 276.20065 282.19968 286.27878 292.56638"
             y="0"
             sodipodi:role="line"
             id="tspan28">Creative Commons. You may distribute, copy and create </tspan><tspan
             x="0 7.0782452 13.365835 17.519638 20.456356 26.44269 32.441692 36.595768 39.53249 45.443127 51.730717 54.391335 63.502644 70.392639 74.546928 80.432915 85.402748 88.063362 91.727989 95.706009 101.9936 108.28119 111.24301 116.66438 119.26225 121.92286 126.89269 133.78268 136.4433 139.40512 146.29512 153.26041 160.27591 162.93652 168.98566 173.95549 176.6161 182.40125 189.29124 196.20633 198.86694 202.43117 205.36789 208.93211 211.59273 217.21516 221.19368 227.48126 234.55951 237.49623 241.6503 244.31093 248.465 255.4303 261.7179 264.37851 270.42764 277.34363 281.49695 288.4628 295.35278 298.79123 301.3891"
             y="15.060096"
             sodipodi:role="line"
             id="tspan30">derivative works freely, so long as you (i) credit the author, </tspan><tspan
             x="0 3.5642228 6.5009413 9.4376602 13.001883 15.662499 22.740746 29.630739 32.291355 39.256649 46.146645 50.30072 52.961338 60.039581 66.929573 69.590195 74.560028 81.45002 84.110634 87.612106 94.502106 98.60598 101.26659 111.73336 118.62336 125.58865 131.87624 137.78732 140.44795 146.49709 153.46237 160.54062 163.20123 166.76546 169.70218 172.6389 175.57562 179.13985 181.80046 186.77029 193.73558 199.78473 203.76323 210.05083 212.71144 218.76057 221.7224 224.65912 230.5451 236.68182 239.27968 241.94029 248.85539 253.82523 256.76193 263.72723 270.74274 273.40335 277.55743 284.52274 290.8103"
             y="30.119354"
             sodipodi:role="line"
             id="tspan32">(ii) do not do so for money and (iii) share alike, using the </tspan><tspan
             x="0 4.9698315 11.01897 21.485737 27.773327 30.433945 33.395763 36.332481 41.879345 48.166935 55.132229 60.102058 66.389648 69.05027 75.099403 80.069237 82.729851 86.883934 93.849228 96.785942 101.75578 104.41639 111.30639 118.27168 124.40842 127.00629"
             y="45.180706"
             sodipodi:role="line"
             id="tspan34">same license as this one. </tspan></text></g></g></g></svg>
