<?xml version="1.0" encoding="UTF-8" standalone="no"?>
<!DOCTYPE svg PUBLIC "-//W3C//DTD SVG 1.1//EN" "http://www.w3.org/Graphics/SVG/1.1/DTD/svg11.dtd">
<svg xmlns="http://www.w3.org/2000/svg" xmlns:xlink="http://www.w3.org/1999/xlink" version="1.1" width="141.72pt" height="255.12pt" viewBox="0 0 141.72 255.12">
<g enable-background="new">
<g>
<g id="Layer-1" data-name="P">
<clipPath id="cp0">
<path transform="matrix(1,0,0,-1,0,255.12)" d="M 0 .000061035 L 141.72 .000061035 L 141.72 255.12006 L 0 255.12006 Z " fill-rule="evenodd"/>
</clipPath>
<g clip-path="url(#cp0)">
<path transform="matrix(1,0,0,-1,0,255.12)" d="M 0 .000015259 L 141.72 .000015259 L 141.72 255.12001 L 0 255.12001 Z " fill="#ffffff" fill-rule="evenodd"/>
</g>
</g>
<g id="Layer-1" data-name="P">
<clipPath id="cp1">
<path transform="matrix(1,0,0,-1,0,255.12)" d="M .000000531 255.12 L 141.72 255.12 L 141.72 .000045776 L -.000009964 .000045776 " fill-rule="evenodd"/>
</clipPath>
<g clip-path="url(#cp1)">
<path transform="matrix(1,0,0,-1,0,255.12)" d="M 33.297 217.28 L 33.297 35.154 L 89.477 35.154 L 89.477 89.011 L 81.918 89.464 C 66.786 93.476 57.77 108.99 61.781 124.13 C 64.79 135.48 74.271 143.39 85.208 144.94 L 89.477 144.68 L 89.477 174.08 L 89.477 174.24 L 89.634 174.24 L 96.684 181.4 L 96.684 196.6 L 89.646 203.75 L 89.477 203.75 L 89.477 203.92 L 89.477 217.28 Z M 4.9504 245.62 L 33.297 245.62 L 89.477 245.62 L 117.82 245.62 L 117.82 217.28 L 117.82 203.92 L 117.82 203.75 L 117.66 203.75 L 110.62 196.6 L 110.62 181.4 L 117.67 174.24 L 117.82 174.24 L 117.82 174.08 L 117.82 35.154 L 117.82 6.8074 L 117.82 6.8073 L 117.82 6.8072 L 89.477 6.8072 L 89.477 6.8073 L 4.9507 6.8073 L 4.9506 6.8074 L 4.9505 6.8074 L 4.9504 217.28 L 4.9504 245.62 Z " fill="#5b9bd5" fill-rule="evenodd"/>
</g>
<clipPath id="cp2">
<path transform="matrix(1,0,0,-1,0,255.12)" d="M .000000531 255.12 L 141.72 255.12 L 141.72 .000045776 L -.000009964 .000045776 " fill-rule="evenodd"/>
</clipPath>
<g clip-path="url(#cp2)">
<path transform="matrix(1,0,0,-1,0,255.12)" stroke-width="1" stroke-linecap="butt" stroke-miterlimit="10" stroke-linejoin="miter" fill="none" stroke="#c55a11" d="M 33.297 217.28 L 33.297 35.154 L 89.477 35.154 L 89.477 89.011 L 81.918 89.464 C 66.786 93.476 57.77 108.99 61.781 124.13 C 64.79 135.48 74.271 143.39 85.208 144.94 L 89.477 144.68 L 89.477 174.08 L 89.477 174.24 L 89.634 174.24 L 96.684 181.4 L 96.684 196.6 L 89.646 203.75 L 89.477 203.75 L 89.477 203.92 L 89.477 217.28 Z M 4.9504 245.62 L 33.297 245.62 L 89.477 245.62 L 117.82 245.62 L 117.82 217.28 L 117.82 203.92 L 117.82 203.75 L 117.66 203.75 L 110.62 196.6 L 110.62 181.4 L 117.67 174.24 L 117.82 174.24 L 117.82 174.08 L 117.82 35.154 L 117.82 6.8074 L 117.82 6.8073 L 117.82 6.8072 L 89.477 6.8072 L 89.477 6.8073 L 4.9507 6.8073 L 4.9506 6.8074 L 4.9505 6.8074 L 4.9504 217.28 L 4.9504 245.62 Z "/>
</g>
</g>
<g id="Layer-1" data-name="P">
<clipPath id="cp3">
<path transform="matrix(1,0,0,-1,0,255.12)" d="M .000000592 255.12 L 141.72 255.12 L 141.72 .000045776 L -.00001359 .000045776 " fill-rule="evenodd"/>
</clipPath>
<g clip-path="url(#cp3)">
<path transform="matrix(1,0,0,-1,0,255.12)" d="M 80.603 121.71 C 83.203 126.31 89.047 127.94 93.655 125.34 C 98.263 122.74 99.891 116.9 97.291 112.29 C 94.69 107.68 88.846 106.05 84.238 108.65 C 79.63 111.25 78.002 117.1 80.603 121.71 Z " fill="#3b3838" fill-rule="evenodd"/>
</g>
<clipPath id="cp4">
<path transform="matrix(1,0,0,-1,0,255.12)" d="M .000000592 255.12 L 141.72 255.12 L 141.72 .000045776 L -.00001359 .000045776 " fill-rule="evenodd"/>
</clipPath>
<g clip-path="url(#cp4)">
<path transform="matrix(1,0,0,-1,0,255.12)" stroke-width="1.5" stroke-linecap="butt" stroke-miterlimit="10" stroke-linejoin="miter" fill="none" stroke="#3b3838" d="M 80.603 121.71 C 83.203 126.31 89.047 127.94 93.655 125.34 C 98.263 122.74 99.891 116.9 97.291 112.29 C 94.69 107.68 88.846 106.05 84.238 108.65 C 79.63 111.25 78.002 117.1 80.603 121.71 Z "/>
</g>
</g>
<g id="Layer-1" data-name="P">
<clipPath id="cp5">
<path transform="matrix(1,0,0,-1,0,255.12)" d="M .000008375 255.12 L 141.72 255.12 L 141.72 .000045776 L -.000005271 .000045776 " fill-rule="evenodd"/>
</clipPath>
<g clip-path="url(#cp5)">
<path transform="matrix(1,0,0,-1,0,255.12)" stroke-width="1.5" stroke-linecap="butt" stroke-miterlimit="10" stroke-linejoin="miter" fill="none" stroke="#3b3838" d="M 65.105 130.45 L 113.26 103.28 "/>
</g>
</g>
<g id="Layer-1" data-name="P">
<clipPath id="cp6">
<path transform="matrix(1,0,0,-1,0,255.12)" d="M .000001095 255.12 L 141.72 255.12 L 141.72 .000045776 L -.000005831 .000061035 " fill-rule="evenodd"/>
</clipPath>
<g clip-path="url(#cp6)">
<path transform="matrix(1,0,0,-1,0,255.12)" stroke-width="1.5" stroke-linecap="butt" stroke-miterlimit="10" stroke-linejoin="miter" fill="none" stroke="#3b3838" d="M 102.77 140.94 L 75.595 92.788 "/>
</g>
</g>
<g id="Layer-1" data-name="P">
<clipPath id="cp7">
<path transform="matrix(1,0,0,-1,0,255.12)" d="M .000002379 255.12 L 141.72 255.12 L 141.72 .000045776 L -.00000381 .000061035 " fill-rule="evenodd"/>
</clipPath>
<g clip-path="url(#cp7)">
<path transform="matrix(1,0,0,-1,0,255.12)" stroke-width="1.5" stroke-linecap="butt" stroke-miterlimit="10" stroke-linejoin="miter" fill="none" stroke="#3b3838" d="M 81.764 143.5 L 96.599 90.233 "/>
</g>
</g>
<g id="Layer-1" data-name="P">
<clipPath id="cp8">
<path transform="matrix(1,0,0,-1,0,255.12)" d="M -.000001932 255.12 L 141.72 255.12 L 141.72 .000015259 L -.000017204 .000015259 " fill-rule="evenodd"/>
</clipPath>
<g clip-path="url(#cp8)">
<path transform="matrix(1,0,0,-1,0,255.12)" stroke-width="1.5" stroke-linecap="butt" stroke-miterlimit="10" stroke-linejoin="miter" fill="none" stroke="#3b3838" d="M 62.55 109.45 L 115.81 124.28 "/>
</g>
</g>
<g id="Layer-1" data-name="P">
<clipPath id="cp9">
<path transform="matrix(1,0,0,-1,0,255.12)" d="M -.000008547 255.12 L 141.72 255.12 L 141.72 0 L .000014072 0 " fill-rule="evenodd"/>
</clipPath>
<g clip-path="url(#cp9)">
<path transform="matrix(1,0,0,-1,0,255.12)" stroke-width="1" stroke-linecap="butt" stroke-miterlimit="10" stroke-linejoin="miter" fill="none" stroke="#3b3838" d="M 118.33 57.31 C 110.22 49.202 97.078 49.202 88.97 57.31 "/>
</g>
</g>
<g id="Layer-1" data-name="P">
<clipPath id="cp10">
<path transform="matrix(1,0,0,-1,0,255.12)" d="M .000002112 0 L 141.72 0 L 141.72 255.12 L .000002112 255.12 Z " fill-rule="evenodd"/>
</clipPath>
<g clip-path="url(#cp10)">
<text xml:space="preserve" transform="matrix(1 0 -0 1 0 255.12)" font-size="20.04" font-family="CMUSerif" font-style="italic"><tspan y="-113.47" x="129.05">I</tspan></text>
</g>
</g>
<g id="Layer-1" data-name="P">
<clipPath id="cp11">
<path transform="matrix(1,0,0,-1,0,255.12)" d="M .000002112 0 L 141.72 0 L 141.72 255.12 L .000002112 255.12 Z " fill-rule="evenodd"/>
</clipPath>
<g clip-path="url(#cp11)">
<text xml:space="preserve" transform="matrix(1 0 -0 1 0 255.12)" font-size="20.04" font-family="CMUSerif" font-style="italic"><tspan y="-180.72" x="128.47">&#x03b2;</tspan></text>
</g>
</g>
<g id="Layer-1" data-name="P">
<clipPath id="cp12">
<path transform="matrix(1,0,0,-1,0,255.12)" d="M .000002112 0 L 141.72 0 L 141.72 255.12 L .000002112 255.12 Z " fill-rule="evenodd"/>
</clipPath>
<g clip-path="url(#cp12)">
<text xml:space="preserve" transform="matrix(1 0 -0 1 0 255.12)" font-size="20.04" font-family="CMUSerif" font-style="italic"><tspan y="-46.464" x="127.46">&#x03b1;</tspan></text>
</g>
</g>
<g id="Layer-1" data-name="P">
<clipPath id="cp13">
<path transform="matrix(1,0,0,-1,0,255.12)" d="M .000002112 0 L 141.72 0 L 141.72 255.12 L .000002112 255.12 Z " fill-rule="evenodd"/>
</clipPath>
<g clip-path="url(#cp13)">
<text xml:space="preserve" transform="matrix(1 0 -0 1 0 255.12)" font-size="20.04" font-family="CambriaMath"><tspan y="-226.66" x="43.824">&#x1236;</tspan></text>
</g>
</g>
<g id="Layer-1" data-name="P">
<clipPath id="cp14">
<path transform="matrix(1,0,0,-1,0,255.12)" d="M .000002112 0 L 141.72 0 L 141.72 255.12 L .000002112 255.12 Z " fill-rule="evenodd"/>
</clipPath>
<g clip-path="url(#cp14)">
<text xml:space="preserve" transform="matrix(1 0 -0 1 0 255.12)" font-size="20.04" font-family="CambriaMath"><tspan y="-222.94" x="33.984">&#x1d449;</tspan></text>
</g>
</g>
<g id="Layer-1" data-name="P">
<path transform="matrix(1,0,0,-1,0,255.12)" d="M 54.55 232.56 L 78.076 232.26 L 78.056 230.7 L 54.53 231 Z M 77.105 234.49 L 83.066 231.41 L 77.028 228.49 Z "/>
</g>
</g>
</g>
</svg>
