<?xml version="1.0" encoding="UTF-8" standalone="no"?>
<svg
   xmlns:dc="http://purl.org/dc/elements/1.1/"
   xmlns:cc="http://creativecommons.org/ns#"
   xmlns:rdf="http://www.w3.org/1999/02/22-rdf-syntax-ns#"
   xmlns:svg="http://www.w3.org/2000/svg"
   xmlns="http://www.w3.org/2000/svg"
   viewBox="0 0 755.84003 720"
   height="720"
   width="755.84003"
   xml:space="preserve"
   id="svg2"
   version="1.1"><metadata
     id="metadata8"><rdf:RDF><cc:Work
         rdf:about=""><dc:format>image/svg+xml</dc:format><dc:type
           rdf:resource="http://purl.org/dc/dcmitype/StillImage" /></cc:Work></rdf:RDF></metadata><defs
     id="defs6"><clipPath
       id="clipPath18"
       clipPathUnits="userSpaceOnUse"><path
         style="clip-rule:evenodd"
         id="path16"
         d="M 0,1.2207e-4 H 566.88 V 540.00012 H 0 Z" /></clipPath><clipPath
       id="clipPath38"
       clipPathUnits="userSpaceOnUse"><path
         style="clip-rule:evenodd"
         id="path36"
         d="M 8.447e-6,0 H 566.88001 V 540 H 8.447e-6 Z" /></clipPath><clipPath
       id="clipPath50"
       clipPathUnits="userSpaceOnUse"><path
         style="clip-rule:evenodd"
         id="path48"
         d="M 8.447e-6,0 H 566.88001 V 540 H 8.447e-6 Z" /></clipPath><clipPath
       id="clipPath62"
       clipPathUnits="userSpaceOnUse"><path
         style="clip-rule:evenodd"
         id="path60"
         d="M 8.447e-6,0 H 566.88001 V 540 H 8.447e-6 Z" /></clipPath></defs><g
     transform="matrix(1.3333333,0,0,-1.3333333,0,720)"
     id="g10"><g
       id="g12"><g
         clip-path="url(#clipPath18)"
         id="g14"><path
           id="path20"
           style="fill:#ffffff;fill-opacity:1;fill-rule:evenodd;stroke:none"
           d="M 0,6.1035e-5 H 566.88 V 540.00006 H 0 Z" /></g></g><path
       id="path22"
       style="fill:#ed7d31;fill-opacity:1;fill-rule:evenodd;stroke:none"
       d="m 138.6,351.96 c 0,101.27 82.12,183.36 183.42,183.36 101.3,0 183.42,-82.09 183.42,-183.36 0,-101.27 -82.12,-183.36 -183.42,-183.36 -101.3,0 -183.42,82.09 -183.42,183.36 z" /><path
       id="path24"
       style="fill:none;stroke:#ae5a21;stroke-width:6;stroke-linecap:butt;stroke-linejoin:miter;stroke-miterlimit:10;stroke-dasharray:none;stroke-opacity:1"
       d="m 138.6,351.96 c 0,101.27 82.12,183.36 183.42,183.36 101.3,0 183.42,-82.09 183.42,-183.36 0,-101.27 -82.12,-183.36 -183.42,-183.36 -101.3,0 -183.42,82.09 -183.42,183.36 z" /><path
       id="path26"
       style="fill:none;stroke:#70ad47;stroke-width:12;stroke-linecap:butt;stroke-linejoin:miter;stroke-miterlimit:10;stroke-dasharray:none;stroke-opacity:1"
       d="M 15.48,345.36 453.87,8.9196" /><path
       id="path28"
       style="fill:#000000;fill-opacity:1;fill-rule:nonzero;stroke:none"
       d="m 322.49,352.52 178.31,-136.84 -0.95,-1.24 -178.3,136.84 z m 174.45,-127.7 4.66,-10.73 -11.58,1.71 c -0.42,0.07 -0.72,0.46 -0.65,0.89 0.06,0.43 0.46,0.72 0.88,0.66 l 10.19,-1.51 -0.83,-1.09 -4.1,9.45 c -0.17,0.39 0.01,0.85 0.41,1.03 0.39,0.17 0.85,-0.01 1.02,-0.41 z" /><path
       id="path30"
       style="fill:#000000;fill-opacity:1;fill-rule:nonzero;stroke:none"
       d="m 323.74,352.01 152.18,93.9 -0.82,1.33 -152.17,-93.9 z m 2.17,7.16 -3.89,-7.31 8.28,0.2 c 0.43,0.01 0.77,0.37 0.76,0.8 -0.01,0.43 -0.37,0.77 -0.8,0.76 v 0 l -6.95,-0.17 0.71,-1.15 3.27,6.13 c 0.2,0.38 0.06,0.86 -0.32,1.06 -0.38,0.2 -0.85,0.06 -1.06,-0.32 z m 145.25,78.04 5.72,10.21 -11.69,-0.54 c -0.43,-0.02 -0.76,-0.38 -0.74,-0.81 0.02,-0.43 0.38,-0.76 0.81,-0.74 l 10.29,0.47 -0.72,1.16 -5.03,-8.98 c -0.21,-0.38 -0.08,-0.85 0.3,-1.07 0.37,-0.21 0.85,-0.07 1.06,0.3 z" /><g
       id="g32"><g
         clip-path="url(#clipPath38)"
         id="g34"><text
           id="text42"
           style="font-style:italic;font-variant:normal;font-weight:500;font-size:39.98400116px;font-family:CMUSerif;-inkscape-font-specification:CMUSerif-Italic;writing-mode:lr-tb;fill:#000000;fill-opacity:1;fill-rule:nonzero;stroke:none"
           transform="matrix(1,0,0,-1,376.97,405.36)"><tspan
             id="tspan40"
             y="0"
             x="0">r</tspan></text>
</g></g><g
       id="g44"><g
         clip-path="url(#clipPath50)"
         id="g46"><text
           id="text54"
           style="font-style:italic;font-variant:normal;font-weight:500;font-size:39.95999908px;font-family:CMUSerif;-inkscape-font-specification:CMUSerif-Italic;writing-mode:lr-tb;fill:#000000;fill-opacity:1;fill-rule:nonzero;stroke:none"
           transform="matrix(1,0,0,-1,476.06,182.81)"><tspan
             id="tspan52"
             y="0"
             x="0">v</tspan></text>
</g></g><g
       id="g56"><g
         clip-path="url(#clipPath62)"
         id="g58"><text
           id="text66"
           style="font-style:italic;font-variant:normal;font-weight:500;font-size:39.98400116px;font-family:CMUSerif;-inkscape-font-specification:CMUSerif-Italic;writing-mode:lr-tb;fill:#000000;fill-opacity:1;fill-rule:nonzero;stroke:none"
           transform="matrix(1,0,0,-1,275.81,328.63)"><tspan
             id="tspan64"
             y="0"
             x="0">ω</tspan></text>
</g></g><path
       id="path68"
       style="fill:#000000;fill-opacity:1;fill-rule:nonzero;stroke:none"
       d="m 322.04,370.8 0.95,-0.02 0.96,-0.07 0.95,-0.13 0.94,-0.16 1.8,-0.47 1.74,-0.64 1.65,-0.79 1.56,-0.95 1.45,-1.09 1.35,-1.22 1.21,-1.34 1.09,-1.45 0.95,-1.57 0.79,-1.65 0.64,-1.73 0.47,-1.8 0.16,-0.94 0.12,-0.95 0.08,-0.96 0.02,-0.97 -0.02,-0.97 -0.07,-0.96 -0.13,-0.95 -0.16,-0.94 -0.47,-1.8 -0.64,-1.74 -0.79,-1.65 -0.94,-1.56 -1.1,-1.45 -1.21,-1.35 -1.35,-1.21 -1.45,-1.09 -1.56,-0.95 -1.65,-0.79 -1.74,-0.64 -1.8,-0.47 -0.94,-0.16 -0.95,-0.12 -0.96,-0.08 -0.97,-0.02 -0.97,0.02 -0.97,0.08 -0.96,0.13 -0.95,0.17 -0.93,0.22 -0.93,0.27 -1.78,0.66 -1.73,0.84 -1.62,1.03 -1.52,1.18 -0.26,0.25 1.08,1.12 0.23,-0.22 -0.06,0.06 1.46,-1.14 -0.06,0.05 1.55,-0.99 -0.07,0.05 1.65,-0.81 -0.07,0.03 1.71,-0.64 -0.05,0.02 0.88,-0.26 -0.03,0.01 0.89,-0.21 -0.04,0.01 0.91,-0.17 -0.04,0.01 0.92,-0.12 -0.04,0.01 0.93,-0.08 h -0.04 l 0.93,-0.02 H 322 l 0.93,0.02 h -0.04 l 0.92,0.07 h -0.03 l 0.9,0.11 h -0.04 l 0.9,0.16 -0.06,-0.02 1.74,0.45 -0.07,-0.02 1.66,0.61 -0.07,-0.03 1.58,0.76 -0.07,-0.03 1.5,0.9 -0.06,-0.04 1.39,1.04 -0.05,-0.04 1.29,1.16 -0.06,-0.06 1.16,1.29 -0.04,-0.05 1.05,1.4 -0.05,-0.07 0.91,1.5 -0.04,-0.07 0.76,1.58 -0.03,-0.07 0.61,1.66 -0.02,-0.07 0.45,1.74 -0.02,-0.06 0.16,0.9 v -0.04 l 0.12,0.91 -0.01,-0.05 0.07,0.93 v -0.04 l 0.02,0.93 v -0.04 l -0.02,0.93 v -0.04 l -0.07,0.92 v -0.03 l -0.11,0.9 v -0.04 l -0.16,0.9 0.02,-0.06 -0.45,1.73 0.02,-0.07 -0.61,1.66 0.03,-0.07 -0.76,1.58 0.03,-0.06 -0.9,1.5 0.04,-0.06 -1.04,1.39 0.04,-0.06 -1.16,1.29 0.05,-0.06 -1.29,1.17 0.06,-0.04 -1.39,1.04 0.06,-0.04 -1.5,0.9 0.07,-0.03 -1.58,0.76 0.07,-0.03 -1.66,0.61 0.07,-0.02 -1.74,0.45 0.06,-0.02 -0.9,0.16 h 0.04 l -0.91,0.12 0.05,-0.01 -0.93,0.07 h 0.04 l -0.93,0.02 z m -10.95,-39.28 -2.27,7.96 8.06,-1.95 c 0.41,-0.1 0.67,-0.52 0.57,-0.94 -0.1,-0.42 -0.52,-0.67 -0.94,-0.57 l -6.75,1.63 0.93,0.97 1.9,-6.68 c 0.12,-0.41 -0.12,-0.84 -0.53,-0.96 -0.42,-0.12 -0.85,0.12 -0.97,0.54 z" /><path
       id="path70"
       style="fill:#000000;fill-opacity:1;fill-rule:nonzero;stroke:none"
       d="m 322.49,351.8 185.84,-142.62 -0.95,-1.24 -185.83,142.62 z m 181.98,-133.48 4.65,-10.73 -11.57,1.72 c -0.42,0.06 -0.72,0.46 -0.66,0.88 0.07,0.43 0.46,0.72 0.89,0.66 l 10.18,-1.51 -0.83,-1.08 -4.09,9.44 c -0.17,0.4 0.01,0.86 0.4,1.03 0.4,0.17 0.86,-0.01 1.03,-0.41 z" /></g></svg>