<?xml version="1.0" encoding="UTF-8" standalone="no"?>
<svg
   xmlns:dc="http://purl.org/dc/elements/1.1/"
   xmlns:cc="http://creativecommons.org/ns#"
   xmlns:rdf="http://www.w3.org/1999/02/22-rdf-syntax-ns#"
   xmlns:svg="http://www.w3.org/2000/svg"
   xmlns="http://www.w3.org/2000/svg"
   xmlns:xlink="http://www.w3.org/1999/xlink"
   xmlns:sodipodi="http://sodipodi.sourceforge.net/DTD/sodipodi-0.dtd"
   xmlns:inkscape="http://www.inkscape.org/namespaces/inkscape"
   version="1.1"
   viewBox="-300 -150 600 300"
   width="700"
   height="350"
   id="svg376"
   sodipodi:docname="Sigmoids.svg"
   inkscape:version="0.92.1 r15371">
  <g
     style="stroke:gray;fill:none;stroke-width:1;"
     id="g66">
    <path
       d="M -300  100 H300"
       id="path60" />
    <path
       d="M -300 -100 H300"
       id="path62" />
    <path
       d="M -200 200 L 200 -200"
       id="path64"
       stroke-dasharray="10 10" />
  </g>
  <path
     style="fill:none;stroke:#0066ff;stroke-width:2;stroke-opacity:0.7"
     inkscape:connector-curvature="0"
     id="path364"
     d="M -350,96.1524 C -320.8333,95.5477 -291.6667,94.7647 -262.5,93.4488 C -233.3333,92.1329 -204.1667,90.3863 -175,86.8243 C -160.4167,85.0433 -145.8333,82.7893 -131.25,79.5432 C -116.6667,76.297 -102.0833,72.0664 -87.5,65.8505 C -72.9167,59.6345 -58.3333,51.296 -43.75,40.0819 C -29.1667,28.8677 -14.5833,14.5833 0,0 C 14.5833,-14.5833 29.1667,-28.8677 43.75,-40.0819 C 58.3333,-51.296 72.9167,-59.6345 87.5,-65.8505 C 102.0833,-72.0664 116.6667,-76.297 131.25,-79.5432 C 145.8333,-82.7893 160.4167,-85.0433 175,-86.8243 C 204.1667,-90.3863 233.3333,-92.1329 262.5,-93.4488 C 291.6667,-94.7647 320.8333,-95.5477 350,-96.1524"
     class="graph C3" />
  <metadata
     id="metadata380">
    <rdf:RDF>
      <cc:Work
         rdf:about="">
        <dc:format>image/svg+xml</dc:format>
        <dc:type
           rdf:resource="http://purl.org/dc/dcmitype/StillImage" />
      </cc:Work>
    </rdf:RDF>
  </metadata>
  <sodipodi:namedview
     pagecolor="#ffffff"
     bordercolor="#666666"
     borderopacity="1"
     objecttolerance="10"
     gridtolerance="10"
     guidetolerance="10"
     inkscape:pageopacity="0"
     inkscape:pageshadow="2"
     inkscape:window-width="1920"
     inkscape:window-height="1017"
     id="namedview378"
     showgrid="false"
     inkscape:zoom="1.6228571"
     inkscape:cx="271.78128"
     inkscape:cy="134.86969"
     inkscape:window-x="-8"
     inkscape:window-y="-8"
     inkscape:window-maximized="1"
     inkscape:current-layer="svg376" />
  <title
     id="title2">Sigmoidal Functions</title>
  <defs
     id="defs50">
    <path
       id="d0"
       d="M 4.578125 -3.1875 C 4.578125 -3.984375 4.53125 -4.78125 4.1875 -5.515625 C 3.734375 -6.484375 2.90625 -6.640625 2.5 -6.640625 C 1.890625 -6.640625 1.171875 -6.375 0.75 -5.453125 C 0.4375 -4.765625 0.390625 -3.984375 0.390625 -3.1875 C 0.390625 -2.4375 0.421875 -1.546875 0.84375 -0.78125 C 1.265625 0.015625 2 0.21875 2.484375 0.21875 C 3.015625 0.21875 3.78125 0.015625 4.21875 -0.9375 C 4.53125 -1.625 4.578125 -2.40625 4.578125 -3.1875 Z M 2.484375 0 C 2.09375 0 1.5 -0.25 1.328125 -1.203125 C 1.21875 -1.796875 1.21875 -2.71875 1.21875 -3.3125 C 1.21875 -3.953125 1.21875 -4.609375 1.296875 -5.140625 C 1.484375 -6.328125 2.234375 -6.421875 2.484375 -6.421875 C 2.8125 -6.421875 3.46875 -6.234375 3.65625 -5.25 C 3.765625 -4.6875 3.765625 -3.9375 3.765625 -3.3125 C 3.765625 -2.5625 3.765625 -1.890625 3.65625 -1.25 C 3.5 -0.296875 2.9375 0 2.484375 0 Z M 2.484375 0 " />
    <path
       id="d1"
       d="M 2.9375 -6.375 C 2.9375 -6.625 2.9375 -6.640625 2.703125 -6.640625 C 2.078125 -6 1.203125 -6 0.890625 -6 L 0.890625 -5.6875 C 1.09375 -5.6875 1.671875 -5.6875 2.1875 -5.953125 L 2.1875 -0.78125 C 2.1875 -0.421875 2.15625 -0.3125 1.265625 -0.3125 L 0.953125 -0.3125 L 0.953125 0 C 1.296875 -0.03125 2.15625 -0.03125 2.5625 -0.03125 C 2.953125 -0.03125 3.828125 -0.03125 4.171875 0 L 4.171875 -0.3125 L 3.859375 -0.3125 C 2.953125 -0.3125 2.9375 -0.421875 2.9375 -0.78125 L 2.9375 -6.375 Z M 2.9375 -6.375 " />
    <path
       id="d2"
       d="M 4.46875 -1.734375 L 4.234375 -1.734375 C 4.171875 -1.4375 4.109375 -1 4 -0.84375 C 3.9375 -0.765625 3.28125 -0.765625 3.0625 -0.765625 L 1.265625 -0.765625 L 2.328125 -1.796875 C 3.875 -3.171875 4.46875 -3.703125 4.46875 -4.703125 C 4.46875 -5.84375 3.578125 -6.640625 2.359375 -6.640625 C 1.234375 -6.640625 0.5 -5.71875 0.5 -4.828125 C 0.5 -4.28125 1 -4.28125 1.03125 -4.28125 C 1.203125 -4.28125 1.546875 -4.390625 1.546875 -4.8125 C 1.546875 -5.0625 1.359375 -5.328125 1.015625 -5.328125 C 0.9375 -5.328125 0.921875 -5.328125 0.890625 -5.3125 C 1.109375 -5.96875 1.65625 -6.328125 2.234375 -6.328125 C 3.140625 -6.328125 3.5625 -5.515625 3.5625 -4.703125 C 3.5625 -3.90625 3.078125 -3.125 2.515625 -2.5 L 0.609375 -0.375 C 0.5 -0.265625 0.5 -0.234375 0.5 0 L 4.203125 0 L 4.46875 -1.734375 Z M 4.46875 -1.734375 " />
    <path
       id="d5"
       d="M 4.46875 -2 C 4.46875 -3.1875 3.65625 -4.1875 2.578125 -4.1875 C 2.109375 -4.1875 1.671875 -4.03125 1.3125 -3.671875 L 1.3125 -5.625 C 1.515625 -5.5625 1.84375 -5.5 2.15625 -5.5 C 3.390625 -5.5 4.09375 -6.40625 4.09375 -6.53125 C 4.09375 -6.59375 4.0625 -6.640625 3.984375 -6.640625 C 3.984375 -6.640625 3.953125 -6.640625 3.90625 -6.609375 C 3.703125 -6.515625 3.21875 -6.3125 2.546875 -6.3125 C 2.15625 -6.3125 1.6875 -6.390625 1.21875 -6.59375 C 1.140625 -6.625 1.125 -6.625 1.109375 -6.625 C 1 -6.625 1 -6.546875 1 -6.390625 L 1 -3.4375 C 1 -3.265625 1 -3.1875 1.140625 -3.1875 C 1.21875 -3.1875 1.234375 -3.203125 1.28125 -3.265625 C 1.390625 -3.421875 1.75 -3.96875 2.5625 -3.96875 C 3.078125 -3.96875 3.328125 -3.515625 3.40625 -3.328125 C 3.5625 -2.953125 3.59375 -2.578125 3.59375 -2.078125 C 3.59375 -1.71875 3.59375 -1.125 3.34375 -0.703125 C 3.109375 -0.3125 2.734375 -0.0625 2.28125 -0.0625 C 1.5625 -0.0625 0.984375 -0.59375 0.8125 -1.171875 C 0.84375 -1.171875 0.875 -1.15625 0.984375 -1.15625 C 1.3125 -1.15625 1.484375 -1.40625 1.484375 -1.640625 C 1.484375 -1.890625 1.3125 -2.140625 0.984375 -2.140625 C 0.84375 -2.140625 0.5 -2.0625 0.5 -1.609375 C 0.5 -0.75 1.1875 0.21875 2.296875 0.21875 C 3.453125 0.21875 4.46875 -0.734375 4.46875 -2 Z M 4.46875 -2 " />
    <path
       id="lparen"
       d="M 3.296875 2.390625 C 3.296875 2.359375 3.296875 2.34375 3.125 2.171875 C 1.890625 0.921875 1.5625 -0.96875 1.5625 -2.5 C 1.5625 -4.234375 1.9375 -5.96875 3.171875 -7.203125 C 3.296875 -7.328125 3.296875 -7.34375 3.296875 -7.375 C 3.296875 -7.453125 3.265625 -7.484375 3.203125 -7.484375 C 3.09375 -7.484375 2.203125 -6.796875 1.609375 -5.53125 C 1.109375 -4.4375 0.984375 -3.328125 0.984375 -2.5 C 0.984375 -1.71875 1.09375 -0.515625 1.640625 0.625 C 2.25 1.84375 3.09375 2.5 3.203125 2.5 C 3.265625 2.5 3.296875 2.46875 3.296875 2.390625 Z M 3.296875 2.390625 " />
    <path
       id="rparen"
       d="M 2.875 -2.5 C 2.875 -3.265625 2.765625 -4.46875 2.21875 -5.609375 C 1.625 -6.828125 0.765625 -7.484375 0.671875 -7.484375 C 0.609375 -7.484375 0.5625 -7.4375 0.5625 -7.375 C 0.5625 -7.34375 0.5625 -7.328125 0.75 -7.140625 C 1.734375 -6.15625 2.296875 -4.578125 2.296875 -2.5 C 2.296875 -0.78125 1.9375 0.96875 0.703125 2.21875 C 0.5625 2.34375 0.5625 2.359375 0.5625 2.390625 C 0.5625 2.453125 0.609375 2.5 0.671875 2.5 C 0.765625 2.5 1.671875 1.8125 2.25 0.546875 C 2.765625 -0.546875 2.875 -1.65625 2.875 -2.5 Z M 2.875 -2.5 " />
    <path
       id="a"
       d="M 3.3125 -0.75 C 3.359375 -0.359375 3.625 0.0625 4.09375 0.0625 C 4.3125 0.0625 4.921875 -0.078125 4.921875 -0.890625 L 4.921875 -1.453125 L 4.671875 -1.453125 L 4.671875 -0.890625 C 4.671875 -0.3125 4.421875 -0.25 4.3125 -0.25 C 3.984375 -0.25 3.9375 -0.703125 3.9375 -0.75 L 3.9375 -2.734375 C 3.9375 -3.15625 3.9375 -3.546875 3.578125 -3.921875 C 3.1875 -4.3125 2.6875 -4.46875 2.21875 -4.46875 C 1.390625 -4.46875 0.703125 -4 0.703125 -3.34375 C 0.703125 -3.046875 0.90625 -2.875 1.171875 -2.875 C 1.453125 -2.875 1.625 -3.078125 1.625 -3.328125 C 1.625 -3.453125 1.578125 -3.78125 1.109375 -3.78125 C 1.390625 -4.140625 1.875 -4.25 2.1875 -4.25 C 2.6875 -4.25 3.25 -3.859375 3.25 -2.96875 L 3.25 -2.609375 C 2.734375 -2.578125 2.046875 -2.546875 1.421875 -2.25 C 0.671875 -1.90625 0.421875 -1.390625 0.421875 -0.953125 C 0.421875 -0.140625 1.390625 0.109375 2.015625 0.109375 C 2.671875 0.109375 3.125 -0.296875 3.3125 -0.75 Z M 3.25 -2.390625 L 3.25 -1.390625 C 3.25 -0.453125 2.53125 -0.109375 2.078125 -0.109375 C 1.59375 -0.109375 1.1875 -0.453125 1.1875 -0.953125 C 1.1875 -1.5 1.609375 -2.328125 3.25 -2.390625 Z M 3.25 -2.390625 " />
    <path
       id="c"
       d="M 3.578125 -3.84375 C 3.171875 -3.8125 3.109375 -3.515625 3.109375 -3.390625 C 3.109375 -3.125 3.296875 -2.9375 3.5625 -2.9375 C 3.828125 -2.9375 4.03125 -3.09375 4.03125 -3.40625 C 4.03125 -4.078125 3.265625 -4.46875 2.5 -4.46875 C 1.25 -4.46875 0.34375 -3.390625 0.34375 -2.15625 C 0.34375 -0.875 1.328125 0.109375 2.484375 0.109375 C 3.8125 0.109375 4.140625 -1.09375 4.140625 -1.1875 C 4.140625 -1.28125 4.03125 -1.28125 4 -1.28125 C 3.921875 -1.28125 3.890625 -1.25 3.875 -1.1875 C 3.59375 -0.265625 2.9375 -0.140625 2.578125 -0.140625 C 2.046875 -0.140625 1.171875 -0.5625 1.171875 -2.171875 C 1.171875 -3.796875 1.984375 -4.21875 2.515625 -4.21875 C 2.609375 -4.21875 3.234375 -4.203125 3.578125 -3.84375 Z M 3.578125 -3.84375 " />
    <path
       id="d"
       d="M 3.78125 -0.546875 L 3.78125 0.109375 L 5.25 0 L 5.25 -0.3125 C 4.5625 -0.3125 4.46875 -0.375 4.46875 -0.875 L 4.46875 -6.921875 L 3.046875 -6.8125 L 3.046875 -6.5 C 3.734375 -6.5 3.8125 -6.4375 3.8125 -5.9375 L 3.8125 -3.78125 C 3.53125 -4.140625 3.09375 -4.40625 2.5625 -4.40625 C 1.390625 -4.40625 0.34375 -3.421875 0.34375 -2.140625 C 0.34375 -0.875 1.3125 0.109375 2.453125 0.109375 C 3.09375 0.109375 3.53125 -0.234375 3.78125 -0.546875 Z M 3.78125 -3.21875 L 3.78125 -1.171875 C 3.78125 -1 3.78125 -0.984375 3.671875 -0.8125 C 3.375 -0.328125 2.9375 -0.109375 2.5 -0.109375 C 2.046875 -0.109375 1.6875 -0.375 1.453125 -0.75 C 1.203125 -1.15625 1.171875 -1.71875 1.171875 -2.140625 C 1.171875 -2.5 1.1875 -3.09375 1.46875 -3.546875 C 1.6875 -3.859375 2.0625 -4.1875 2.609375 -4.1875 C 2.953125 -4.1875 3.375 -4.03125 3.671875 -3.59375 C 3.78125 -3.421875 3.78125 -3.40625 3.78125 -3.21875 Z M 3.78125 -3.21875 " />
    <path
       id="e"
       d="M 3.890625 -2.296875 C 4.109375 -2.296875 4.140625 -2.296875 4.140625 -2.515625 C 4.140625 -3.5 3.59375 -4.46875 2.359375 -4.46875 C 1.203125 -4.46875 0.28125 -3.4375 0.28125 -2.1875 C 0.28125 -0.859375 1.328125 0.109375 2.46875 0.109375 C 3.6875 0.109375 4.140625 -1 4.140625 -1.1875 C 4.140625 -1.28125 4.0625 -1.3125 4 -1.3125 C 3.921875 -1.3125 3.890625 -1.25 3.875 -1.171875 C 3.53125 -0.140625 2.625 -0.140625 2.53125 -0.140625 C 2.03125 -0.140625 1.640625 -0.4375 1.40625 -0.8125 C 1.109375 -1.28125 1.109375 -1.9375 1.109375 -2.296875 L 3.890625 -2.296875 Z M 1.109375 -2.515625 C 1.171875 -4 2.015625 -4.25 2.359375 -4.25 C 3.375 -4.25 3.484375 -2.90625 3.484375 -2.515625 L 1.109375 -2.515625 Z M 1.109375 -2.515625 " />
    <path
       id="f"
       d="M 1.78125 -3.984375 L 2.90625 -3.984375 L 2.90625 -4.296875 L 1.75 -4.296875 L 1.75 -5.453125 C 1.75 -6.328125 2.21875 -6.8125 2.65625 -6.8125 C 2.6875 -6.8125 2.84375 -6.8125 2.984375 -6.734375 C 2.875 -6.703125 2.6875 -6.5625 2.6875 -6.3125 C 2.6875 -6.09375 2.84375 -5.890625 3.125 -5.890625 C 3.40625 -5.890625 3.5625 -6.09375 3.5625 -6.328125 C 3.5625 -6.703125 3.1875 -7.03125 2.65625 -7.03125 C 1.96875 -7.03125 1.109375 -6.5 1.109375 -5.4375 L 1.109375 -4.296875 L 0.328125 -4.296875 L 0.328125 -3.984375 L 1.109375 -3.984375 L 1.109375 -0.75 C 1.109375 -0.3125 1 -0.3125 0.34375 -0.3125 L 0.34375 0 C 0.734375 -0.015625 1.203125 -0.03125 1.46875 -0.03125 C 1.875 -0.03125 2.34375 -0.03125 2.734375 0 L 2.734375 -0.3125 L 2.53125 -0.3125 C 1.796875 -0.3125 1.78125 -0.421875 1.78125 -0.78125 L 1.78125 -3.984375 Z M 1.78125 -3.984375 " />
    <path
       id="g"
       d="M 2.21875 -1.71875 C 1.34375 -1.71875 1.34375 -2.71875 1.34375 -2.9375 C 1.34375 -3.203125 1.359375 -3.53125 1.5 -3.78125 C 1.578125 -3.890625 1.8125 -4.171875 2.21875 -4.171875 C 3.078125 -4.171875 3.078125 -3.1875 3.078125 -2.953125 C 3.078125 -2.6875 3.078125 -2.359375 2.921875 -2.109375 C 2.84375 -2 2.609375 -1.71875 2.21875 -1.71875 Z M 1.21875 -1.796875 C 1.609375 -1.515625 2.03125 -1.484375 2.21875 -1.484375 C 3.140625 -1.484375 3.828125 -2.171875 3.828125 -2.9375 C 3.828125 -3.3125 3.671875 -3.671875 3.421875 -3.90625 C 3.78125 -4.25 4.140625 -4.296875 4.3125 -4.296875 C 4.34375 -4.296875 4.390625 -4.296875 4.421875 -4.28125 C 4.3125 -4.25 4.25 -4.140625 4.25 -4.015625 C 4.25 -3.84375 4.390625 -3.734375 4.546875 -3.734375 C 4.640625 -3.734375 4.828125 -3.796875 4.828125 -4.03125 C 4.828125 -4.203125 4.71875 -4.515625 4.328125 -4.515625 C 4.125 -4.515625 3.6875 -4.453125 3.265625 -4.046875 C 2.84375 -4.375 2.4375 -4.40625 2.21875 -4.40625 C 1.28125 -4.40625 0.59375 -3.71875 0.59375 -2.953125 C 0.59375 -2.515625 0.8125 -2.140625 1.0625 -1.921875 C 0.9375 -1.78125 0.75 -1.453125 0.75 -1.09375 C 0.75 -0.78125 0.890625 -0.40625 1.203125 -0.203125 C 0.59375 -0.046875 0.28125 0.390625 0.28125 0.78125 C 0.28125 1.5 1.265625 2.046875 2.484375 2.046875 C 3.65625 2.046875 4.6875 1.546875 4.6875 0.765625 C 4.6875 0.421875 4.5625 -0.09375 4.046875 -0.375 C 3.515625 -0.640625 2.9375 -0.640625 2.328125 -0.640625 C 2.078125 -0.640625 1.65625 -0.640625 1.578125 -0.65625 C 1.265625 -0.703125 1.0625 -1 1.0625 -1.328125 C 1.0625 -1.359375 1.0625 -1.59375 1.21875 -1.796875 Z M 2.5 1.828125 C 1.484375 1.828125 0.796875 1.3125 0.796875 0.78125 C 0.796875 0.328125 1.171875 -0.046875 1.609375 -0.0625 L 2.203125 -0.0625 C 3.0625 -0.0625 4.171875 -0.0625 4.171875 0.78125 C 4.171875 1.328125 3.46875 1.828125 2.5 1.828125 Z M 2.5 1.828125 " />
    <path
       id="h"
       d="M 4.5625 -2.515625 C 4.5625 -3.375 4.5625 -3.671875 4.25 -4.03125 C 4.109375 -4.203125 3.78125 -4.40625 3.203125 -4.40625 C 2.359375 -4.40625 1.921875 -3.8125 1.765625 -3.453125 L 1.75 -3.453125 L 1.75 -6.921875 L 0.3125 -6.8125 L 0.3125 -6.5 C 1.015625 -6.5 1.09375 -6.4375 1.09375 -5.9375 L 1.09375 -0.75 C 1.09375 -0.3125 0.984375 -0.3125 0.3125 -0.3125 L 0.3125 0 C 0.671875 -0.015625 1.171875 -0.03125 1.453125 -0.03125 C 1.703125 -0.03125 2.21875 -0.015625 2.5625 0 L 2.5625 -0.3125 C 1.890625 -0.3125 1.78125 -0.3125 1.78125 -0.75 L 1.78125 -2.59375 C 1.78125 -3.625 2.5 -4.1875 3.125 -4.1875 C 3.765625 -4.1875 3.875 -3.65625 3.875 -3.078125 L 3.875 -0.75 C 3.875 -0.3125 3.765625 -0.3125 3.09375 -0.3125 L 3.09375 0 C 3.4375 -0.015625 3.953125 -0.03125 4.21875 -0.03125 C 4.46875 -0.03125 5 -0.015625 5.328125 0 L 5.328125 -0.3125 C 4.8125 -0.3125 4.5625 -0.3125 4.5625 -0.609375 L 4.5625 -2.515625 Z M 4.5625 -2.515625 " />
    <path
       id="n"
       d="M 1.09375 -3.421875 L 1.09375 -0.75 C 1.09375 -0.3125 0.984375 -0.3125 0.3125 -0.3125 L 0.3125 0 C 0.671875 -0.015625 1.171875 -0.03125 1.453125 -0.03125 C 1.703125 -0.03125 2.21875 -0.015625 2.5625 0 L 2.5625 -0.3125 C 1.890625 -0.3125 1.78125 -0.3125 1.78125 -0.75 L 1.78125 -2.59375 C 1.78125 -3.625 2.5 -4.1875 3.125 -4.1875 C 3.765625 -4.1875 3.875 -3.65625 3.875 -3.078125 L 3.875 -0.75 C 3.875 -0.3125 3.765625 -0.3125 3.09375 -0.3125 L 3.09375 0 C 3.4375 -0.015625 3.953125 -0.03125 4.21875 -0.03125 C 4.46875 -0.03125 5 -0.015625 5.328125 0 L 5.328125 -0.3125 C 4.8125 -0.3125 4.5625 -0.3125 4.5625 -0.609375 L 4.5625 -2.515625 C 4.5625 -3.375 4.5625 -3.671875 4.25 -4.03125 C 4.109375 -4.203125 3.78125 -4.40625 3.203125 -4.40625 C 2.46875 -4.40625 2 -3.984375 1.71875 -3.359375 L 1.71875 -4.40625 L 0.3125 -4.296875 L 0.3125 -3.984375 C 1.015625 -3.984375 1.09375 -3.921875 1.09375 -3.421875 Z M 1.09375 -3.421875 " />
    <path
       id="r"
       d="M 1.71875 -0.78125 L 1.71875 -2.3125 C 1.71875 -3.296875 2.140625 -4.1875 2.890625 -4.1875 C 2.953125 -4.1875 2.984375 -4.1875 3 -4.171875 C 2.96875 -4.171875 2.765625 -4.046875 2.765625 -3.78125 C 2.765625 -3.515625 2.984375 -3.359375 3.203125 -3.359375 C 3.375 -3.359375 3.625 -3.484375 3.625 -3.796875 C 3.625 -4.109375 3.3125 -4.40625 2.890625 -4.40625 C 2.15625 -4.40625 1.796875 -3.734375 1.671875 -3.3125 L 1.671875 -4.40625 L 0.28125 -4.296875 L 0.28125 -3.984375 C 0.984375 -3.984375 1.0625 -3.921875 1.0625 -3.421875 L 1.0625 -0.75 C 1.0625 -0.3125 0.953125 -0.3125 0.28125 -0.3125 L 0.28125 0 C 0.671875 -0.015625 1.140625 -0.03125 1.421875 -0.03125 C 1.8125 -0.03125 2.28125 -0.03125 2.6875 0 L 2.6875 -0.3125 L 2.46875 -0.3125 C 1.734375 -0.3125 1.71875 -0.421875 1.71875 -0.78125 Z M 1.71875 -0.78125 " />
    <path
       id="t"
       d="M 1.71875 -3.984375 L 3.15625 -3.984375 L 3.15625 -4.296875 L 1.71875 -4.296875 L 1.71875 -6.125 L 1.46875 -6.125 C 1.46875 -5.3125 1.171875 -4.25 0.1875 -4.203125 L 0.1875 -3.984375 L 1.03125 -3.984375 L 1.03125 -1.234375 C 1.03125 -0.015625 1.96875 0.109375 2.328125 0.109375 C 3.03125 0.109375 3.3125 -0.59375 3.3125 -1.234375 L 3.3125 -1.796875 L 3.0625 -1.796875 L 3.0625 -1.25 C 3.0625 -0.515625 2.765625 -0.140625 2.390625 -0.140625 C 1.71875 -0.140625 1.71875 -1.046875 1.71875 -1.21875 L 1.71875 -3.984375 Z M 1.71875 -3.984375 " />
    <path
       id="it-t"
       d="M 2.046875 -3.984375 L 2.984375 -3.984375 C 3.1875 -3.984375 3.296875 -3.984375 3.296875 -4.1875 C 3.296875 -4.296875 3.1875 -4.296875 3.015625 -4.296875 L 2.140625 -4.296875 C 2.5 -5.71875 2.546875 -5.90625 2.546875 -5.96875 C 2.546875 -6.140625 2.421875 -6.234375 2.25 -6.234375 C 2.21875 -6.234375 1.9375 -6.234375 1.859375 -5.875 L 1.46875 -4.296875 L 0.53125 -4.296875 C 0.328125 -4.296875 0.234375 -4.296875 0.234375 -4.109375 C 0.234375 -3.984375 0.3125 -3.984375 0.515625 -3.984375 L 1.390625 -3.984375 C 0.671875 -1.15625 0.625 -0.984375 0.625 -0.8125 C 0.625 -0.265625 1 0.109375 1.546875 0.109375 C 2.5625 0.109375 3.125 -1.34375 3.125 -1.421875 C 3.125 -1.53125 3.046875 -1.53125 3.015625 -1.53125 C 2.921875 -1.53125 2.90625 -1.5 2.859375 -1.390625 C 2.4375 -0.34375 1.90625 -0.109375 1.5625 -0.109375 C 1.359375 -0.109375 1.25 -0.234375 1.25 -0.5625 C 1.25 -0.8125 1.28125 -0.875 1.3125 -1.046875 L 2.046875 -3.984375 Z M 2.046875 -3.984375 " />
    <path
       id="it-x"
       d="M 3.328125 -3.015625 C 3.390625 -3.265625 3.625 -4.1875 4.3125 -4.1875 C 4.359375 -4.1875 4.609375 -4.1875 4.8125 -4.0625 C 4.53125 -4 4.34375 -3.765625 4.34375 -3.515625 C 4.34375 -3.359375 4.453125 -3.171875 4.71875 -3.171875 C 4.9375 -3.171875 5.25 -3.34375 5.25 -3.75 C 5.25 -4.265625 4.671875 -4.40625 4.328125 -4.40625 C 3.75 -4.40625 3.40625 -3.875 3.28125 -3.65625 C 3.03125 -4.3125 2.5 -4.40625 2.203125 -4.40625 C 1.171875 -4.40625 0.59375 -3.125 0.59375 -2.875 C 0.59375 -2.765625 0.703125 -2.765625 0.71875 -2.765625 C 0.796875 -2.765625 0.828125 -2.796875 0.84375 -2.875 C 1.1875 -3.9375 1.84375 -4.1875 2.1875 -4.1875 C 2.375 -4.1875 2.71875 -4.09375 2.71875 -3.515625 C 2.71875 -3.203125 2.546875 -2.546875 2.1875 -1.140625 C 2.03125 -0.53125 1.671875 -0.109375 1.234375 -0.109375 C 1.171875 -0.109375 0.953125 -0.109375 0.734375 -0.234375 C 0.984375 -0.296875 1.203125 -0.5 1.203125 -0.78125 C 1.203125 -1.046875 0.984375 -1.125 0.84375 -1.125 C 0.53125 -1.125 0.296875 -0.875 0.296875 -0.546875 C 0.296875 -0.09375 0.78125 0.109375 1.21875 0.109375 C 1.890625 0.109375 2.25 -0.59375 2.265625 -0.640625 C 2.390625 -0.28125 2.75 0.109375 3.34375 0.109375 C 4.375 0.109375 4.9375 -1.171875 4.9375 -1.421875 C 4.9375 -1.53125 4.859375 -1.53125 4.828125 -1.53125 C 4.734375 -1.53125 4.71875 -1.484375 4.6875 -1.421875 C 4.359375 -0.34375 3.6875 -0.109375 3.375 -0.109375 C 2.984375 -0.109375 2.828125 -0.421875 2.828125 -0.765625 C 2.828125 -0.984375 2.875 -1.203125 2.984375 -1.640625 L 3.328125 -3.015625 Z M 3.328125 -3.015625 " />
    <path
       id="it-f"
       d="M 3.65625 -3.984375 L 4.515625 -3.984375 C 4.71875 -3.984375 4.8125 -3.984375 4.8125 -4.1875 C 4.8125 -4.296875 4.71875 -4.296875 4.546875 -4.296875 L 3.71875 -4.296875 C 3.828125 -4.875 3.8125 -4.859375 3.921875 -5.4375 C 3.96875 -5.640625 4.109375 -6.34375 4.171875 -6.46875 C 4.25 -6.65625 4.421875 -6.8125 4.640625 -6.8125 C 4.671875 -6.8125 4.9375 -6.8125 5.125 -6.625 C 4.6875 -6.59375 4.578125 -6.234375 4.578125 -6.09375 C 4.578125 -5.859375 4.765625 -5.734375 4.953125 -5.734375 C 5.21875 -5.734375 5.5 -5.96875 5.5 -6.34375 C 5.5 -6.796875 5.046875 -7.03125 4.640625 -7.03125 C 4.296875 -7.03125 3.671875 -6.84375 3.375 -5.859375 C 3.3125 -5.65625 3.28125 -5.546875 3.046875 -4.296875 L 2.359375 -4.296875 C 2.15625 -4.296875 2.046875 -4.296875 2.046875 -4.109375 C 2.046875 -3.984375 2.140625 -3.984375 2.328125 -3.984375 L 2.984375 -3.984375 L 2.25 -0.046875 C 2.0625 0.921875 1.890625 1.828125 1.375 1.828125 C 1.328125 1.828125 1.09375 1.828125 0.890625 1.640625 C 1.359375 1.609375 1.453125 1.25 1.453125 1.109375 C 1.453125 0.875 1.265625 0.75 1.078125 0.75 C 0.8125 0.75 0.53125 0.984375 0.53125 1.359375 C 0.53125 1.796875 0.96875 2.046875 1.375 2.046875 C 1.921875 2.046875 2.328125 1.453125 2.5 1.078125 C 2.828125 0.453125 3.046875 -0.75 3.0625 -0.828125 L 3.65625 -3.984375 Z M 3.65625 -3.984375 " />
    <path
       id="plus"
       d="M 4.078125 -2.296875 L 6.859375 -2.296875 C 7 -2.296875 7.1875 -2.296875 7.1875 -2.5 C 7.1875 -2.6875 7 -2.6875 6.859375 -2.6875 L 4.078125 -2.6875 L 4.078125 -5.484375 C 4.078125 -5.625 4.078125 -5.8125 3.875 -5.8125 C 3.671875 -5.8125 3.671875 -5.625 3.671875 -5.484375 L 3.671875 -2.6875 L 0.890625 -2.6875 C 0.75 -2.6875 0.5625 -2.6875 0.5625 -2.5 C 0.5625 -2.296875 0.75 -2.296875 0.890625 -2.296875 L 3.671875 -2.296875 L 3.671875 0.5 C 3.671875 0.640625 3.671875 0.828125 3.875 0.828125 C 4.078125 0.828125 4.078125 0.640625 4.078125 0.5 L 4.078125 -2.296875 Z M 4.078125 -2.296875 " />
    <path
       id="minus"
       d="M 6.59375 -2.296875 C 6.734375 -2.296875 6.921875 -2.296875 6.921875 -2.5 C 6.921875 -2.6875 6.734375 -2.6875 6.59375 -2.6875 L 1.15625 -2.6875 C 1.015625 -2.6875 0.828125 -2.6875 0.828125 -2.5 C 0.828125 -2.296875 1.015625 -2.296875 1.15625 -2.296875 L 6.59375 -2.296875 Z M 6.59375 -2.296875 " />
    <path
       id="eq"
       d="M 6.84375 -3.265625 C 7 -3.265625 7.1875 -3.265625 7.1875 -3.453125 C 7.1875 -3.65625 7 -3.65625 6.859375 -3.65625 L 0.890625 -3.65625 C 0.75 -3.65625 0.5625 -3.65625 0.5625 -3.453125 C 0.5625 -3.265625 0.75 -3.265625 0.890625 -3.265625 L 6.84375 -3.265625 Z M 6.859375 -1.328125 C 7 -1.328125 7.1875 -1.328125 7.1875 -1.53125 C 7.1875 -1.71875 7 -1.71875 6.84375 -1.71875 L 0.890625 -1.71875 C 0.75 -1.71875 0.5625 -1.71875 0.5625 -1.53125 C 0.5625 -1.328125 0.75 -1.328125 0.890625 -1.328125 L 6.859375 -1.328125 Z M 6.859375 -1.328125 " />
    <path
       id="dot"
       d="M 1.90625 -0.53125 C 1.90625 -0.8125 1.671875 -1.0625 1.390625 -1.0625 C 1.09375 -1.0625 0.859375 -0.8125 0.859375 -0.53125 C 0.859375 -0.234375 1.09375 0 1.390625 0 C 1.671875 0 1.90625 -0.234375 1.90625 -0.53125 Z M 1.90625 -0.53125 " />
    <path
       id="vbar"
       d="M 1.578125 -7.140625 C 1.578125 -7.28125 1.578125 -7.484375 1.390625 -7.484375 C 1.1875 -7.484375 1.1875 -7.28125 1.1875 -7.140625 L 1.1875 2.15625 C 1.1875 2.296875 1.1875 2.5 1.390625 2.5 C 1.578125 2.5 1.578125 2.296875 1.578125 2.15625 L 1.578125 -7.140625 Z M 1.578125 -7.140625 " />
    <path
       id="_2"
       d="M 3.515625 -1.265625 L 3.28125 -1.265625 C 3.265625 -1.109375 3.1875 -0.703125 3.09375 -0.640625 C 3.046875 -0.59375 2.515625 -0.59375 2.40625 -0.59375 L 1.125 -0.59375 C 1.859375 -1.234375 2.109375 -1.4375 2.515625 -1.765625 C 3.03125 -2.171875 3.515625 -2.609375 3.515625 -3.265625 C 3.515625 -4.109375 2.78125 -4.625 1.890625 -4.625 C 1.03125 -4.625 0.4375 -4.015625 0.4375 -3.375 C 0.4375 -3.03125 0.734375 -2.984375 0.8125 -2.984375 C 0.96875 -2.984375 1.171875 -3.109375 1.171875 -3.359375 C 1.171875 -3.484375 1.125 -3.734375 0.765625 -3.734375 C 0.984375 -4.21875 1.453125 -4.375 1.78125 -4.375 C 2.484375 -4.375 2.84375 -3.828125 2.84375 -3.265625 C 2.84375 -2.65625 2.40625 -2.1875 2.1875 -1.9375 L 0.515625 -0.265625 C 0.4375 -0.203125 0.4375 -0.1875 0.4375 0 L 3.3125 0 L 3.515625 -1.265625 Z M 3.515625 -1.265625 " />
    <path
       id="_pi"
       d="M 2.171875 -2.53125 L 3 -2.53125 C 2.890625 -2.109375 2.734375 -1.484375 2.734375 -0.921875 C 2.734375 -0.640625 2.78125 -0.453125 2.8125 -0.3125 C 2.921875 0.046875 3.015625 0.0625 3.125 0.0625 C 3.296875 0.0625 3.453125 -0.078125 3.453125 -0.25 C 3.453125 -0.296875 3.4375 -0.328125 3.40625 -0.390625 C 3.265625 -0.65625 3.140625 -1.046875 3.140625 -1.625 C 3.140625 -1.75 3.140625 -2.03125 3.234375 -2.53125 L 4.109375 -2.53125 C 4.234375 -2.53125 4.296875 -2.53125 4.375 -2.578125 C 4.46875 -2.65625 4.484375 -2.765625 4.484375 -2.796875 C 4.484375 -3 4.3125 -3 4.1875 -3 L 1.5625 -3 C 1.28125 -3 1.078125 -2.9375 0.765625 -2.640625 C 0.578125 -2.484375 0.3125 -2.109375 0.3125 -2.046875 C 0.3125 -1.96875 0.40625 -1.96875 0.4375 -1.96875 C 0.515625 -1.96875 0.515625 -1.984375 0.5625 -2.046875 C 0.90625 -2.53125 1.34375 -2.53125 1.5 -2.53125 L 1.921875 -2.53125 C 1.703125 -1.765625 1.328125 -0.9375 1.125 -0.515625 C 1.078125 -0.4375 1.015625 -0.28125 0.984375 -0.265625 C 0.984375 -0.234375 0.96875 -0.203125 0.96875 -0.15625 C 0.96875 -0.046875 1.046875 0.0625 1.21875 0.0625 C 1.484375 0.0625 1.5625 -0.25 1.734375 -0.875 L 2.171875 -2.53125 Z M 2.171875 -2.53125 " />
    <path
       id="radic"
       d="M 3.875 8.515625 L 2.109375 4.609375 C 2.0625 4.53125 2.046875 4.46875 1.96875 4.46875 C 1.9375 4.46875 1.921875 4.46875 1.828125 4.5625 L 0.84375 5.296875 C 0.734375 5.390625 0.734375 5.40625 0.734375 5.4375 C 0.734375 5.515625 0.765625 5.546875 0.828125 5.546875 C 0.859375 5.546875 0.875 5.546875 0.96875 5.46875 L 1.484375 5.078125 L 3.453125 9.421875 C 3.515625 9.5625 3.53125 9.5625 3.65625 9.5625 C 3.8125 9.5625 3.828125 9.53125 3.890625 9.375 L 8.4375 -0.03125 C 8.5 -0.140625 8.5 -0.15625 8.5 -0.203125 C 8.5 -0.3125 8.421875 -0.40625 8.296875 -0.40625 C 8.1875 -0.40625 8.15625 -0.328125 8.09375 -0.203125 L 3.875 8.515625 Z M 3.875 8.515625 " />
    <path
       id="_radic"
       d="M 3.09375 5.859375 L 1.71875 3.15625 C 1.671875 3.078125 1.671875 3.046875 1.609375 3.046875 C 1.578125 3.046875 1.5625 3.046875 1.5 3.09375 L 0.75 3.609375 C 0.671875 3.65625 0.65625 3.671875 0.65625 3.71875 C 0.65625 3.8125 0.75 3.8125 0.78125 3.8125 L 1.25 3.5 L 2.78125 6.515625 C 2.828125 6.609375 2.84375 6.625 2.9375 6.625 C 3 6.625 3.078125 6.625 3.140625 6.5 L 6.65625 -0.03125 C 6.703125 -0.125 6.703125 -0.15625 6.703125 -0.171875 C 6.703125 -0.28125 6.609375 -0.34375 6.53125 -0.34375 C 6.4375 -0.34375 6.390625 -0.265625 6.359375 -0.21875 L 3.09375 5.859375 Z M 3.09375 5.859375 " />
    <marker
       id="Arrow"
       refX="6"
       refY="5"
       markerUnits="strokeWidth"
       markerWidth="12"
       markerHeight="10"
       orient="auto">
      <g
         transform="translate(6 5)"
         id="g34">
        <path
           d="M -1 0 L -6 5 L 6 0 L -6 -5 z"
           id="path32" />
      </g>
    </marker>
    <g
       id="minus-1"
       transform="translate(0 100) scale(1.5)">
      <use
         xlink:href="#minus"
         x="-16.1"
         id="use37" />
      <use
         xlink:href="#d1"
         x="-8.3"
         id="use39" />
    </g>
    <g
       id="plus-1"
       transform="translate(0 -100) scale(1.5)">
      <use
         xlink:href="#d1"
         x="-8.3"
         id="use42" />
    </g>
    <path
       id="leg"
       d="M0 0 H-13"
       stroke-width="2"
       stroke-opacity="0.7" />
    <path
       id="tick-y"
       d="M-4 0 H4" />
    <use
       id="tick-x"
       xlink:href="#tick-y"
       transform="rotate(90)" />
    <style
       type="text/css"
       id="style48">
.bar { fill:none; stroke-width:3; stroke:black; }
.C0 { stroke:#840; }
.C1 { stroke:#0a0; }
.C2 { stroke:#ea0; }
.C3 { stroke:#06f; }
.C4 { stroke:#f01; }
.C5 { stroke:#a0f; }
.graph {fill:none; stroke-width:0.02; stroke-opacity:0.7;}
.tick {fill:none; stroke-width:1; stroke:black;}
</style>
  </defs>
  <!-- Axes -->
  <g
     style="stroke:black; fill:none;"
     id="g58">
    <!-- x-Axis -->
    <path
       d="M -300 0 H293"
       marker-end="url(#Arrow)"
       id="path54" />
    <!-- y-Axis -->
    <path
       d="M 0 150 V-143"
       marker-end="url(#Arrow)"
       id="path56" />
  </g>
  <!-- Grid Line at y=+/- 1 -->
  <g
     transform="translate(2 -125) scale(1.7)"
     id="g76">
    <use
       xlink:href="#it-f"
       x="2.6"
       id="use68" />
    <use
       xlink:href="#lparen"
       x="8.6"
       id="use70" />
    <use
       xlink:href="#it-x"
       x="12.5"
       id="use72" />
    <use
       xlink:href="#rparen"
       x="18.1"
       id="use74" />
  </g>
  <g
     transform="translate(270 -5) scale(1.7)"
     id="g80">
    <use
       xlink:href="#it-x"
       id="use78" />
  </g>
  <!-- Ticks -->
  <g
     class="tick"
     id="g102">
    <g
       id="ticks-y">
      <use
         xlink:href="#tick-y"
         y="50"
         id="use82" />
      <use
         xlink:href="#tick-y"
         y="100"
         id="use84" />
    </g>
    <use
       xlink:href="#ticks-y"
       transform="rotate(180)"
       id="use87" />
    <g
       id="ticks-x">
      <use
         xlink:href="#tick-x"
         x="50"
         id="use89" />
      <use
         xlink:href="#tick-x"
         x="100"
         id="use91" />
      <use
         xlink:href="#tick-x"
         x="150"
         id="use93" />
      <use
         xlink:href="#tick-x"
         x="200"
         id="use95" />
      <use
         xlink:href="#tick-x"
         x="250"
         id="use97" />
    </g>
    <use
       xlink:href="#ticks-x"
       transform="rotate(180)"
       id="use100" />
  </g>
  <!-- x-Labels -->
  <g
     transform="translate(-0 20)"
     id="g136">
    <g
       transform="translate(50 0) scale(1.5)"
       id="g110">
      <use
         xlink:href="#d0"
         x="-6.75"
         id="use104" />
      <use
         xlink:href="#dot"
         x="-1.75"
         id="use106" />
      <use
         xlink:href="#d5"
         x="1"
         id="use108" />
    </g>
    <g
       transform="translate(100 0) scale(1.5)"
       id="g114">
      <use
         xlink:href="#d1"
         x="-2.85"
         id="use112" />
    </g>
    <g
       transform="translate(150 0) scale(1.5)"
       id="g122">
      <use
         xlink:href="#d1"
         x="-6.75"
         id="use116" />
      <use
         xlink:href="#dot"
         x="-1.75"
         id="use118" />
      <use
         xlink:href="#d5"
         x="1"
         id="use120" />
    </g>
    <g
       transform="translate(200 0) scale(1.5)"
       id="g126">
      <use
         xlink:href="#d2"
         x="-2.85"
         id="use124" />
    </g>
    <g
       transform="translate(250 0) scale(1.5)"
       id="g134">
      <use
         xlink:href="#d2"
         x="-6.75"
         id="use128" />
      <use
         xlink:href="#dot"
         x="-1.75"
         id="use130" />
      <use
         xlink:href="#d5"
         x="1"
         id="use132" />
    </g>
  </g>
  <g
     transform="translate(-4 20)"
     id="g180">
    <g
       transform="translate(-50 0) scale(1.5)"
       id="g146">
      <use
         xlink:href="#minus"
         x="-10.6"
         id="use138" />
      <use
         xlink:href="#d0"
         x="-2.85"
         id="use140" />
      <use
         xlink:href="#dot"
         x="2.1"
         id="use142" />
      <use
         xlink:href="#d5"
         x="4.9"
         id="use144" />
    </g>
    <g
       transform="translate(-100 0) scale(1.5)"
       id="g152">
      <use
         xlink:href="#minus"
         x="-6.75"
         id="use148" />
      <use
         xlink:href="#d1"
         x="1"
         id="use150" />
    </g>
    <g
       transform="translate(-150 0) scale(1.5)"
       id="g162">
      <use
         xlink:href="#minus"
         x="-10.6"
         id="use154" />
      <use
         xlink:href="#d1"
         x="-2.85"
         id="use156" />
      <use
         xlink:href="#dot"
         x="2.1"
         id="use158" />
      <use
         xlink:href="#d5"
         x="4.9"
         id="use160" />
    </g>
    <g
       transform="translate(-200 0) scale(1.5)"
       id="g168">
      <use
         xlink:href="#minus"
         x="-6.75"
         id="use164" />
      <use
         xlink:href="#d2"
         x="1"
         id="use166" />
    </g>
    <g
       transform="translate(-250 0) scale(1.5)"
       id="g178">
      <use
         xlink:href="#minus"
         x="-10.6"
         id="use170" />
      <use
         xlink:href="#d2"
         x="-2.85"
         id="use172" />
      <use
         xlink:href="#dot"
         x="2.1"
         id="use174" />
      <use
         xlink:href="#d5"
         x="4.9"
         id="use176" />
    </g>
  </g>
  <!-- y-Labels -->
  <g
     transform="translate(-3 4) scale(1)"
     id="g208">
    <use
       xlink:href="#minus-1"
       style="stroke:white; stroke-width:5; stroke-linejoin:round;"
       id="use182" />
    <use
       xlink:href="#minus-1"
       stroke="none"
       id="use184" />
    <g
       transform="translate(0 50) scale(1.5)"
       id="g194">
      <use
         xlink:href="#minus"
         x="-23.9"
         id="use186" />
      <use
         xlink:href="#d0"
         x="-16.1"
         id="use188" />
      <use
         xlink:href="#dot"
         x="-11.1"
         id="use190" />
      <use
         xlink:href="#d5"
         x="-8.3"
         id="use192" />
    </g>
    <g
       transform="translate(0 -50) scale(1.5)"
       id="g202">
      <use
         xlink:href="#d0"
         x="-16.1"
         id="use196" />
      <use
         xlink:href="#dot"
         x="-11.1"
         id="use198" />
      <use
         xlink:href="#d5"
         x="-8.3"
         id="use200" />
    </g>
    <use
       xlink:href="#plus-1"
       style="stroke:white; stroke-width:5;stroke-linejoin:round;"
       id="use204" />
    <use
       xlink:href="#plus-1"
       stroke="none"
       id="use206" />
  </g>
  <!-- Legend -->
  <path
     style="fill:none;stroke:#00aa00;stroke-width:2;stroke-opacity:0.7"
     inkscape:connector-curvature="0"
     id="path360"
     d="M -350,99.8178 C -320.8333,99.7116 -291.6667,99.5618 -262.5,98.956 C -233.3333,98.3501 -204.1667,97.4571 -175,94.1376 C -160.4167,92.4778 -145.8333,90.1647 -131.25,86.4907 C -116.6667,82.8166 -102.0833,77.7481 -87.5,70.3906 C -72.9167,63.033 -58.3333,53.2701 -43.75,41.157 C -29.1667,29.0439 -14.5833,14.5833 0,0 C 14.5833,-14.5833 29.1667,-29.0439 43.75,-41.157 C 58.3333,-53.2701 72.9167,-63.033 87.5,-70.3906 C 102.0833,-77.7481 116.6667,-82.8166 131.25,-86.4907 C 145.8333,-90.1647 160.4167,-92.4778 175,-94.1376 C 204.1667,-97.4571 233.3333,-98.3501 262.5,-98.956 C 291.6667,-99.5618 320.8333,-99.7116 350,-99.8178"
     class="graph C1" />
  <path
     style="fill:none;stroke:#ff0011;stroke-width:2;stroke-opacity:0.7"
     inkscape:connector-curvature="0"
     id="path366"
     d="M -350,88.5457 C -320.8333,87.6116 -291.6667,86.4732 -262.5,84.853 C -233.3333,83.2328 -204.1667,81.1971 -175,77.7883 C -145.8333,74.3796 -116.6667,70.0528 -87.5,59.9574 C -72.9167,54.9097 -58.3333,48.2361 -43.75,38.3308 C -29.1667,28.4255 -14.5833,14.5833 0,0 C 14.5833,-14.5833 29.1667,-28.4255 43.75,-38.3308 C 58.3333,-48.2361 72.9167,-54.9097 87.5,-59.9574 C 116.6667,-70.0528 145.8333,-74.3796 175,-77.7883 C 204.1667,-81.1971 233.3333,-83.2328 262.5,-84.853 C 291.6667,-86.4732 320.8333,-87.6116 350,-88.5457"
     class="graph C4" />
  <use
     height="100%"
     width="100%"
     id="use368"
     y="-0.88545698"
     x="-3.5"
     xlink:href="#P"
     transform="scale(100,-100)" />
  <path
     style="fill:none;stroke:#aa00ff;stroke-width:2;stroke-opacity:0.7"
     inkscape:connector-curvature="0"
     id="path370"
     d="M -350,77.7778 C -320.8333,76.3374 -291.6667,74.6334 -262.5,72.4138 C -233.3333,70.1942 -204.1667,67.4931 -175,63.6364 C -145.8333,59.7796 -116.6667,54.963 -87.5,46.6667 C -72.9167,42.5185 -58.3333,37.4921 -43.75,30.4348 C -36.4583,26.9061 -29.1667,22.8578 -21.875,17.9487 C -14.5833,13.0397 -7.2917,7.2917 0,0 C 7.2917,-7.2917 14.5833,-13.0397 21.875,-17.9487 C 29.1667,-22.8578 36.4583,-26.9061 43.75,-30.4348 C 58.3333,-37.4921 72.9167,-42.5185 87.5,-46.6667 C 116.6667,-54.963 145.8333,-59.7796 175,-63.6364 C 204.1667,-67.4931 233.3333,-70.1942 262.5,-72.4138 C 291.6667,-74.6334 320.8333,-76.3374 350,-77.7778"
     class="graph C5" />
  <path
     style="fill:none;stroke:#001600;stroke-width:2.12450457;stroke-opacity:0.69999999"
     inkscape:connector-curvature="0"
     id="path372"
     d="M -338.514,100 L -282.095,99.9593 C -254.79768,99.9066 -234.59314,99.773 -217.63753,99.3622 C -195.59723,98.8281 -176.95729,97.774 -160.06262,95.5153 C -136.69116,92.3906 -115.82324,86.8461 -95.160122,76.6995 C -79.394961,68.9581 -64.815727,59.0611 -50.262784,47.1273 C -32.848834,32.8474 -16.467803,16.4677 0,0 C 16.467803,-16.4677 32.848834,-32.8474 50.262784,-47.1273 C 64.815727,-59.0611 79.394961,-68.9581 95.160122,-76.6995 C 115.82324,-86.8461 136.69116,-92.3906 160.06262,-95.5153 C 176.95729,-97.774 195.59723,-98.8281 217.63753,-99.3622 C 234.59314,-99.773 254.79768,-99.9066 282.095,-99.9593 L 338.514,-100"
     class="graph C0" />
  <rect
     id="rect210"
     style="fill:#ffffff;stroke:#000000;stroke-width:0.69999999"
     height="119"
     width="217"
     y="-137.10001"
     x="-278" />
  <g
     id="g4982"
     transform="translate(52.200003)">
    <use
       transform="matrix(1.4,0,0,1.4,-250,-114)"
       height="100%"
       width="100%"
       x="0"
       style="fill:#000000;stroke:#000000;stroke-opacity:1"
       id="use212"
       y="-2"
       class="C0"
       xlink:href="#leg" />
    <use
       transform="matrix(1.4,0,0,1.4,-250,-114)"
       height="100%"
       width="100%"
       y="0"
       id="use214"
       x="2.5999999"
       xlink:href="#e"
       style="fill:#000000" />
    <use
       transform="matrix(1.4,0,0,1.4,-250,-114)"
       height="100%"
       width="100%"
       y="0"
       id="use216"
       x="7"
       xlink:href="#r"
       style="fill:#000000" />
    <use
       transform="matrix(1.4,0,0,1.4,-250,-114)"
       height="100%"
       width="100%"
       y="0"
       id="use218"
       x="11"
       xlink:href="#f"
       style="fill:#000000" />
    <use
       transform="matrix(1.4,0,0,1.4,-250,-114)"
       height="100%"
       width="100%"
       y="0"
       id="use220"
       x="16.4"
       xlink:href="#lparen"
       style="fill:#000000" />
    <g
       id="g236"
       transform="matrix(1.4,0,0,1.4,-253.64,-116.94)"
       style="fill:#000000">
      <use
         height="100%"
         width="100%"
         id="use222"
         y="-7.5999999"
         x="23.6"
         xlink:href="#_radic" />
      <path
         style="fill:none;stroke:#000000;stroke-width:3"
         inkscape:connector-curvature="0"
         id="path224"
         transform="matrix(0.1,0,0,-0.1,-300,100)"
         d="M 3301.25,1077.7734 H 3350.3516"
         class="bar" />
      <use
         height="100%"
         width="100%"
         id="use226"
         y="-2.5"
         x="30.1"
         xlink:href="#_pi" />
      <path
         style="fill:none;stroke:#000000;stroke-width:3"
         inkscape:connector-curvature="0"
         id="path228"
         transform="matrix(0.1,0,0,-0.1,-300,100)"
         d="M 3235.8203,1003.75 H 3350.3516"
         class="bar" />
      <use
         height="100%"
         width="100%"
         id="use230"
         y="5.5999999"
         x="27.299999"
         xlink:href="#_2" />
      <use
         height="100%"
         width="100%"
         id="use232"
         y="2.0999999"
         x="36.200001"
         xlink:href="#it-x" />
      <use
         height="100%"
         width="100%"
         id="use234"
         y="2.0999999"
         x="41.900002"
         xlink:href="#rparen" />
    </g>
  </g>
  <g
     style="fill:#000000"
     id="g256"
     transform="matrix(1.4,0,0,1.4,-250,-76.2)">
    <use
       height="100%"
       width="100%"
       x="0"
       style="stroke:#00aa00"
       id="use240"
       y="-2"
       class="C1"
       xlink:href="#leg" />
    <use
       height="100%"
       width="100%"
       y="0"
       id="use242"
       x="2.5999999"
       xlink:href="#t" />
    <use
       height="100%"
       width="100%"
       y="0"
       id="use244"
       x="6.5"
       xlink:href="#a" />
    <use
       height="100%"
       width="100%"
       y="0"
       id="use246"
       x="11.5"
       xlink:href="#n" />
    <use
       height="100%"
       width="100%"
       y="0"
       id="use248"
       x="17"
       xlink:href="#h" />
    <use
       height="100%"
       width="100%"
       y="0"
       id="use250"
       x="24.200001"
       xlink:href="#lparen" />
    <use
       height="100%"
       width="100%"
       y="0"
       id="use252"
       x="28.1"
       xlink:href="#it-x" />
    <use
       height="100%"
       width="100%"
       y="0"
       id="use254"
       x="33.799999"
       xlink:href="#rparen" />
  </g>
  <g
     style="fill:#000000"
     id="g304"
     transform="matrix(1.4,0,0,1.4,-250,-32.45)">
    <use
       height="100%"
       width="100%"
       x="0"
       style="stroke:#0066ff"
       id="use286"
       y="-10.4"
       class="C3"
       xlink:href="#leg" />
    <use
       height="100%"
       width="100%"
       id="use288"
       y="-13.75"
       x="18.799999"
       xlink:href="#it-x" />
    <path
       style="fill:none;stroke:#000000;stroke-width:3"
       inkscape:connector-curvature="0"
       id="path290"
       transform="matrix(0.1,0,0,-0.1,-300,91.5)"
       d="M 3038.2031,1019.8047 H 3394.4531"
       class="bar" />
    <use
       height="100%"
       width="100%"
       id="use292"
       y="-8.3000002"
       x="3.8"
       xlink:href="#radic" />
    <path
       style="fill:none;stroke:#000000;stroke-width:3"
       inkscape:connector-curvature="0"
       id="path294"
       transform="matrix(0.1,0,0,-0.1,-300,91.5)"
       d="M 3121.25,999.88281 H 3394.4531"
       class="bar" />
    <use
       height="100%"
       width="100%"
       y="0"
       id="use296"
       x="12.1"
       xlink:href="#d1" />
    <use
       height="100%"
       width="100%"
       y="0"
       id="use298"
       x="19.32"
       xlink:href="#plus" />
    <use
       height="100%"
       width="100%"
       y="0"
       id="use300"
       x="29.299999"
       xlink:href="#it-x" />
    <use
       height="100%"
       width="100%"
       id="use302"
       y="-2.9000001"
       x="35"
       xlink:href="#_2" />
  </g>
  <g
     style="fill:#000000"
     id="g338"
     transform="matrix(1.4,0,0,1.4,-152,-79)">
    <use
       height="100%"
       width="100%"
       x="0"
       style="stroke:#ff0011"
       id="use306"
       y="0"
       class="C4"
       xlink:href="#leg" />
    <use
       height="100%"
       width="100%"
       id="use308"
       y="-1.8"
       x="4.3000002"
       xlink:href="#_2" />
    <path
       style="fill:none;stroke:#000000;stroke-width:3"
       inkscape:connector-curvature="0"
       id="path310"
       transform="matrix(0.1,0,0,-0.1,-300,100.5)"
       d="M 3038.2031,1003.75 H 3087.3047"
       class="bar" />
    <use
       height="100%"
       width="100%"
       id="use312"
       y="5.5"
       x="3.8"
       xlink:href="#_pi" />
    <use
       height="100%"
       width="100%"
       id="use314"
       y="2.0999999"
       x="9.8999996"
       xlink:href="#a" />
    <use
       height="100%"
       width="100%"
       id="use316"
       y="2.0999999"
       x="14.9"
       xlink:href="#r" />
    <use
       height="100%"
       width="100%"
       id="use318"
       y="2.0999999"
       x="18.799999"
       xlink:href="#c" />
    <use
       height="100%"
       width="100%"
       id="use320"
       y="2.0999999"
       x="23.25"
       xlink:href="#t" />
    <use
       height="100%"
       width="100%"
       id="use322"
       y="2.0999999"
       x="27.1"
       xlink:href="#a" />
    <use
       height="100%"
       width="100%"
       id="use324"
       y="2.0999999"
       x="32.099998"
       xlink:href="#n" />
    <use
       height="100%"
       width="100%"
       id="use326"
       y="2.0999999"
       x="39.299999"
       xlink:href="#lparen" />
    <use
       height="100%"
       width="100%"
       id="use328"
       y="-2"
       x="44.599998"
       xlink:href="#_pi" />
    <path
       style="fill:none;stroke:#000000;stroke-width:3"
       inkscape:connector-curvature="0"
       id="path330"
       transform="matrix(0.1,0,0,-0.1,-300,100)"
       d="M 3443.5938,1003.75 H 3492.6563"
       class="bar" />
    <use
       height="100%"
       width="100%"
       id="use332"
       y="5.5"
       x="44.799999"
       xlink:href="#_2" />
    <use
       height="100%"
       width="100%"
       id="use334"
       y="2.0999999"
       x="50.5"
       xlink:href="#it-x" />
    <use
       height="100%"
       width="100%"
       id="use336"
       y="2.0999999"
       x="56.150002"
       xlink:href="#rparen" />
  </g>
  <g
     style="fill:#000000"
     id="g356"
     transform="matrix(1.4,0,0,1.4,-152,-34.2)">
    <use
       height="100%"
       width="100%"
       x="0"
       style="stroke:#aa00ff"
       id="use340"
       y="-9"
       class="C5"
       xlink:href="#leg" />
    <use
       height="100%"
       width="100%"
       id="use342"
       y="-12.5"
       x="15.2"
       xlink:href="#it-x" />
    <path
       style="fill:none;stroke:#000000;stroke-width:3"
       inkscape:connector-curvature="0"
       id="path344"
       transform="matrix(0.1,0,0,-0.1,-300,92.7)"
       d="M 3038.2031,1020.1172 H 3322.0703"
       class="bar" />
    <use
       height="100%"
       width="100%"
       y="0"
       id="use346"
       x="3.8"
       xlink:href="#d1" />
    <use
       height="100%"
       width="100%"
       y="0"
       id="use348"
       x="11"
       xlink:href="#plus" />
    <use
       height="100%"
       width="100%"
       y="0"
       id="use350"
       x="21"
       xlink:href="#vbar" />
    <use
       height="100%"
       width="100%"
       y="0"
       id="use352"
       x="23.75"
       xlink:href="#it-x" />
    <use
       height="100%"
       width="100%"
       y="0"
       id="use354"
       x="29.5"
       xlink:href="#vbar" />
  </g>
</svg>
